<?xml version="1.0" encoding="UTF-8"?>
<svg xmlns="http://www.w3.org/2000/svg" xmlns:xlink="http://www.w3.org/1999/xlink" width="268.040161pt" height="81.645012pt" viewBox="0 0 268.040161 81.645012" version="1.1">
<defs>
<clipPath id="clip1">
  <path d="M 54 30 L 127.496094 30 L 127.496094 81.644531 L 54 81.644531 Z M 54 30 "/>
</clipPath>
<clipPath id="clip2">
  <path d="M 124 36 L 127.496094 36 L 127.496094 41 L 124 41 Z M 124 36 "/>
</clipPath>
<clipPath id="clip3">
  <path d="M 66 73 L 71 73 L 71 81.644531 L 66 81.644531 Z M 66 73 "/>
</clipPath>
<clipPath id="clip4">
  <path d="M 142 1 L 268.039062 1 L 268.039062 3 L 142 3 Z M 142 1 "/>
</clipPath>
<clipPath id="clip5">
  <path d="M 142 21 L 268.039062 21 L 268.039062 23 L 142 23 Z M 142 21 "/>
</clipPath>
<clipPath id="clip6">
  <path d="M 142 71 L 268.039062 71 L 268.039062 73 L 142 73 Z M 142 71 "/>
</clipPath>
</defs>
<g id="surface1">
<path style=" stroke:none;fill-rule:evenodd;fill:rgb(0%,48.626709%,96.861267%);fill-opacity:1;" d="M 63 74.574219 L 126 38.574219 L 63 2.574219 Z M 63 74.574219 "/>
<path style=" stroke:none;fill-rule:evenodd;fill:rgb(100%,73.724365%,23.529053%);fill-opacity:1;" d="M 63 74.574219 L 0 38.574219 L 63 2.574219 Z M 63 74.574219 "/>
<g clip-path="url(#clip1)" clip-rule="nonzero">
<path style="fill:none;stroke-width:1.5;stroke-linecap:butt;stroke-linejoin:miter;stroke:rgb(0%,0%,0%);stroke-opacity:1;stroke-miterlimit:4;" d="M 63 74.574219 L 126 38.574219 "/>
</g>
<path style="fill:none;stroke-width:1.5;stroke-linecap:butt;stroke-linejoin:miter;stroke:rgb(0%,0%,0%);stroke-opacity:1;stroke-miterlimit:4;" d="M 63 74.574219 L 63 2.574219 "/>
<path style=" stroke:none;fill-rule:nonzero;fill:rgb(0%,0%,0%);fill-opacity:1;" d="M 64.871094 74.574219 C 64.871094 75.605469 64.03125 76.445312 63 76.445312 C 61.96875 76.445312 61.128906 75.605469 61.128906 74.574219 C 61.128906 73.539062 61.96875 72.703125 63 72.703125 C 64.03125 72.703125 64.871094 73.539062 64.871094 74.574219 Z M 64.871094 74.574219 "/>
<path style=" stroke:none;fill-rule:nonzero;fill:rgb(0%,0%,0%);fill-opacity:1;" d="M 64.871094 2.574219 C 64.871094 3.605469 64.03125 4.445312 63 4.445312 C 61.96875 4.445312 61.128906 3.605469 61.128906 2.574219 C 61.128906 1.539062 61.96875 0.703125 63 0.703125 C 64.03125 0.703125 64.871094 1.539062 64.871094 2.574219 Z M 64.871094 2.574219 "/>
<g clip-path="url(#clip2)" clip-rule="nonzero">
<path style=" stroke:none;fill-rule:nonzero;fill:rgb(0%,0%,0%);fill-opacity:1;" d="M 127.871094 38.574219 C 127.871094 39.605469 127.03125 40.445312 126 40.445312 C 124.96875 40.445312 124.128906 39.605469 124.128906 38.574219 C 124.128906 37.539062 124.96875 36.703125 126 36.703125 C 127.03125 36.703125 127.871094 37.539062 127.871094 38.574219 Z M 127.871094 38.574219 "/>
</g>
<g clip-path="url(#clip3)" clip-rule="nonzero">
<path style=" stroke:none;fill-rule:nonzero;fill:rgb(0%,0%,0%);fill-opacity:1;" d="M 70.945312 77.8125 C 70.945312 76.917969 70.890625 76.019531 70.503906 75.195312 C 69.996094 74.105469 69.0625 73.929688 68.605469 73.929688 C 67.921875 73.929688 67.113281 74.226562 66.636719 75.265625 C 66.285156 76.039062 66.234375 76.917969 66.234375 77.8125 C 66.234375 78.65625 66.269531 79.660156 66.742188 80.519531 C 67.21875 81.417969 68.042969 81.644531 68.589844 81.644531 C 69.1875 81.644531 70.046875 81.417969 70.539062 80.34375 C 70.890625 79.570312 70.945312 78.691406 70.945312 77.8125 Z M 68.589844 81.398438 C 68.148438 81.398438 67.480469 81.117188 67.289062 80.046875 C 67.164062 79.378906 67.164062 78.339844 67.164062 77.671875 C 67.164062 76.953125 67.164062 76.214844 67.253906 75.617188 C 67.464844 74.28125 68.308594 74.175781 68.589844 74.175781 C 68.957031 74.175781 69.695312 74.386719 69.90625 75.492188 C 70.03125 76.125 70.03125 76.96875 70.03125 77.671875 C 70.03125 78.515625 70.03125 79.273438 69.90625 79.992188 C 69.730469 81.066406 69.097656 81.398438 68.589844 81.398438 Z M 68.589844 81.398438 "/>
</g>
<path style=" stroke:none;fill-rule:nonzero;fill:rgb(0%,0%,0%);fill-opacity:1;" d="M 52.199219 1.914062 C 51.601562 1.160156 51.460938 0.984375 51.109375 0.703125 C 50.476562 0.191406 49.859375 0 49.28125 0 C 47.980469 0 47.117188 1.230469 47.117188 2.546875 C 47.117188 3.832031 47.945312 5.078125 49.246094 5.078125 C 50.527344 5.078125 51.460938 4.058594 52.003906 3.164062 C 52.621094 3.917969 52.742188 4.09375 53.09375 4.375 C 53.726562 4.886719 54.359375 5.078125 54.921875 5.078125 C 56.242188 5.078125 57.085938 3.847656 57.085938 2.53125 C 57.085938 1.246094 56.257812 0 54.976562 0 C 53.675781 0 52.742188 1.019531 52.199219 1.914062 Z M 52.496094 2.300781 C 52.953125 1.492188 53.78125 0.351562 55.046875 0.351562 C 56.242188 0.351562 56.839844 1.527344 56.839844 2.53125 C 56.839844 3.636719 56.082031 4.535156 55.097656 4.535156 C 54.449219 4.535156 53.957031 4.078125 53.710938 3.832031 C 53.429688 3.53125 53.183594 3.179688 52.496094 2.300781 Z M 51.722656 2.777344 C 51.265625 3.585938 50.421875 4.726562 49.15625 4.726562 C 47.980469 4.726562 47.363281 3.550781 47.363281 2.546875 C 47.363281 1.441406 48.121094 0.542969 49.105469 0.542969 C 49.753906 0.542969 50.265625 1 50.492188 1.246094 C 50.773438 1.546875 51.039062 1.898438 51.722656 2.777344 Z M 51.722656 2.777344 "/>
<path style=" stroke:none;fill-rule:nonzero;fill:rgb(0%,0%,0%);fill-opacity:1;" d="M 125.050781 27.261719 C 125.050781 26.980469 125.050781 26.960938 124.789062 26.960938 C 124.085938 27.683594 123.101562 27.683594 122.75 27.683594 L 122.75 28.035156 C 122.976562 28.035156 123.628906 28.035156 124.207031 27.734375 L 124.207031 33.554688 C 124.207031 33.957031 124.171875 34.082031 123.171875 34.082031 L 122.820312 34.082031 L 122.820312 34.433594 C 123.207031 34.398438 124.171875 34.398438 124.628906 34.398438 C 125.070312 34.398438 126.054688 34.398438 126.441406 34.433594 L 126.441406 34.082031 L 126.089844 34.082031 C 125.070312 34.082031 125.050781 33.957031 125.050781 33.554688 Z M 125.050781 27.261719 "/>
<g clip-path="url(#clip4)" clip-rule="nonzero">
<path style="fill:none;stroke-width:0.936;stroke-linecap:butt;stroke-linejoin:miter;stroke:rgb(0%,0%,0%);stroke-opacity:1;stroke-miterlimit:10;" d="M 142.566406 -1.902344 L 268.039062 -1.902344 " transform="matrix(1,0,0,-1,0,0)"/>
</g>
<path style=" stroke:none;fill-rule:nonzero;fill:rgb(0%,0%,0%);fill-opacity:1;" d="M 155.875 7.574219 L 153.421875 7.574219 L 153.421875 7.792969 C 154.078125 7.824219 154.296875 7.964844 154.296875 8.292969 C 154.296875 8.480469 154.21875 8.808594 154.078125 9.167969 L 152.3125 13.558594 L 150.515625 9.511719 C 150.109375 8.636719 150.015625 8.371094 150.015625 8.183594 C 150.015625 7.964844 150.1875 7.839844 150.578125 7.824219 C 150.625 7.824219 150.75 7.808594 150.921875 7.792969 L 150.921875 7.574219 L 147.734375 7.574219 L 147.734375 7.792969 C 148.328125 7.824219 148.484375 7.980469 149 9.042969 L 151.953125 15.605469 L 152.125 15.605469 L 154.78125 8.902344 C 155.171875 7.964844 155.296875 7.824219 155.875 7.792969 Z M 155.875 7.574219 "/>
<path style=" stroke:none;fill-rule:nonzero;fill:rgb(0%,0%,0%);fill-opacity:1;" d="M 159.726562 13.527344 C 159.148438 14.433594 158.648438 14.777344 157.882812 14.777344 C 157.195312 14.777344 156.679688 14.433594 156.335938 13.746094 C 156.117188 13.292969 156.039062 12.902344 156.007812 12.167969 L 159.695312 12.167969 C 159.601562 11.386719 159.476562 11.042969 159.179688 10.667969 C 158.820312 10.230469 158.273438 9.980469 157.648438 9.980469 C 157.054688 9.980469 156.492188 10.199219 156.039062 10.605469 C 155.476562 11.089844 155.148438 11.949219 155.148438 12.917969 C 155.148438 14.574219 156.007812 15.605469 157.382812 15.605469 C 158.523438 15.605469 159.414062 14.902344 159.914062 13.605469 Z M 156.039062 11.792969 C 156.164062 10.855469 156.570312 10.417969 157.304688 10.417969 C 158.023438 10.417969 158.320312 10.746094 158.476562 11.792969 Z M 156.039062 11.792969 "/>
<path style=" stroke:none;fill-rule:nonzero;fill:rgb(0%,0%,0%);fill-opacity:1;" d="M 160.238281 10.824219 C 160.410156 10.777344 160.519531 10.777344 160.660156 10.777344 C 160.957031 10.777344 161.066406 10.964844 161.066406 11.480469 L 161.066406 14.480469 C 161.066406 15.074219 160.988281 15.152344 160.222656 15.308594 L 160.222656 15.480469 L 163.082031 15.480469 L 163.082031 15.308594 C 162.269531 15.261719 162.066406 15.089844 162.066406 14.402344 L 162.066406 11.714844 C 162.066406 11.339844 162.582031 10.730469 162.910156 10.730469 C 162.988281 10.730469 163.082031 10.792969 163.222656 10.917969 C 163.410156 11.074219 163.535156 11.152344 163.691406 11.152344 C 163.988281 11.152344 164.160156 10.949219 164.160156 10.621094 C 164.160156 10.214844 163.910156 9.980469 163.503906 9.980469 C 163.003906 9.980469 162.660156 10.261719 162.066406 11.105469 L 162.066406 10.011719 L 162.019531 9.980469 C 161.378906 10.246094 160.941406 10.402344 160.238281 10.621094 Z M 160.238281 10.824219 "/>
<path style=" stroke:none;fill-rule:nonzero;fill:rgb(0%,0%,0%);fill-opacity:1;" d="M 167.1875 10.105469 L 165.984375 10.105469 L 165.984375 8.714844 C 165.984375 8.589844 165.96875 8.558594 165.890625 8.558594 C 165.8125 8.667969 165.75 8.777344 165.65625 8.886719 C 165.203125 9.558594 164.6875 10.121094 164.5 10.167969 C 164.375 10.261719 164.296875 10.339844 164.296875 10.402344 C 164.296875 10.433594 164.3125 10.464844 164.34375 10.480469 L 164.984375 10.480469 L 164.984375 14.074219 C 164.984375 15.089844 165.328125 15.605469 166.046875 15.605469 C 166.625 15.605469 167.078125 15.308594 167.46875 14.699219 L 167.3125 14.558594 C 167.0625 14.855469 166.859375 14.980469 166.609375 14.980469 C 166.15625 14.980469 165.984375 14.652344 165.984375 13.902344 L 165.984375 10.480469 L 167.1875 10.480469 Z M 167.1875 10.105469 "/>
<path style=" stroke:none;fill-rule:nonzero;fill:rgb(0%,0%,0%);fill-opacity:1;" d="M 172.339844 13.527344 C 171.761719 14.433594 171.261719 14.777344 170.496094 14.777344 C 169.808594 14.777344 169.292969 14.433594 168.949219 13.746094 C 168.730469 13.292969 168.652344 12.902344 168.621094 12.167969 L 172.308594 12.167969 C 172.214844 11.386719 172.089844 11.042969 171.792969 10.667969 C 171.433594 10.230469 170.886719 9.980469 170.261719 9.980469 C 169.667969 9.980469 169.105469 10.199219 168.652344 10.605469 C 168.089844 11.089844 167.761719 11.949219 167.761719 12.917969 C 167.761719 14.574219 168.621094 15.605469 169.996094 15.605469 C 171.136719 15.605469 172.027344 14.902344 172.527344 13.605469 Z M 168.652344 11.792969 C 168.777344 10.855469 169.183594 10.417969 169.917969 10.417969 C 170.636719 10.417969 170.933594 10.746094 171.089844 11.792969 Z M 168.652344 11.792969 "/>
<path style=" stroke:none;fill-rule:nonzero;fill:rgb(0%,0%,0%);fill-opacity:1;" d="M 175.921875 15.480469 L 178.3125 15.480469 L 178.3125 15.308594 C 177.953125 15.308594 177.703125 15.105469 177.34375 14.589844 L 175.8125 12.246094 L 176.796875 10.808594 C 177.03125 10.480469 177.390625 10.292969 177.765625 10.277344 L 177.765625 10.105469 L 175.875 10.105469 L 175.875 10.277344 C 176.234375 10.308594 176.359375 10.371094 176.359375 10.542969 C 176.359375 10.683594 176.21875 10.949219 175.921875 11.324219 C 175.859375 11.386719 175.71875 11.605469 175.5625 11.839844 L 175.390625 11.605469 C 175.0625 11.105469 174.84375 10.699219 174.84375 10.542969 C 174.84375 10.371094 175 10.292969 175.359375 10.277344 L 175.359375 10.105469 L 172.875 10.105469 L 172.875 10.277344 L 172.984375 10.277344 C 173.34375 10.277344 173.53125 10.433594 173.90625 10.996094 L 175.03125 12.714844 L 173.671875 14.699219 C 173.3125 15.183594 173.1875 15.261719 172.796875 15.308594 L 172.796875 15.480469 L 174.53125 15.480469 L 174.53125 15.308594 C 174.203125 15.308594 174.046875 15.246094 174.046875 15.089844 C 174.046875 15.011719 174.140625 14.839844 174.296875 14.589844 L 175.234375 13.121094 L 176.328125 14.792969 C 176.375 14.871094 176.390625 14.949219 176.390625 15.011719 C 176.390625 15.230469 176.3125 15.277344 175.921875 15.308594 Z M 175.921875 15.480469 "/>
<path style=" stroke:none;fill-rule:nonzero;fill:rgb(0%,0%,0%);fill-opacity:1;" d="M 197 11.246094 L 193.953125 11.246094 L 193.953125 11.464844 C 194.46875 11.496094 194.609375 11.542969 194.765625 11.636719 C 194.9375 11.746094 195.015625 12.011719 195.015625 12.527344 L 195.015625 14.464844 C 195.015625 14.839844 194.28125 15.167969 193.421875 15.167969 C 191.46875 15.167969 190.28125 13.808594 190.28125 11.589844 C 190.28125 10.464844 190.609375 9.371094 191.140625 8.792969 C 191.65625 8.199219 192.40625 7.871094 193.21875 7.871094 C 193.890625 7.871094 194.46875 8.105469 194.9375 8.542969 C 195.296875 8.871094 195.484375 9.199219 195.78125 9.917969 L 196.0625 9.917969 L 195.96875 7.402344 L 195.703125 7.402344 C 195.625 7.621094 195.421875 7.792969 195.171875 7.792969 C 195.046875 7.792969 194.859375 7.761719 194.640625 7.667969 C 194.09375 7.496094 193.546875 7.402344 193.015625 7.402344 C 190.625 7.402344 188.90625 9.152344 188.90625 11.589844 C 188.90625 12.761719 189.234375 13.667969 189.90625 14.371094 C 190.703125 15.199219 191.859375 15.652344 193.171875 15.652344 C 194.203125 15.652344 195.6875 15.230469 196.171875 14.808594 L 196.171875 12.386719 C 196.171875 11.683594 196.3125 11.527344 197 11.464844 Z M 197 11.246094 "/>
<path style=" stroke:none;fill-rule:nonzero;fill:rgb(0%,0%,0%);fill-opacity:1;" d="M 202.039062 13.527344 C 201.460938 14.433594 200.960938 14.777344 200.195312 14.777344 C 199.507812 14.777344 198.992188 14.433594 198.648438 13.746094 C 198.429688 13.292969 198.351562 12.902344 198.320312 12.167969 L 202.007812 12.167969 C 201.914062 11.386719 201.789062 11.042969 201.492188 10.667969 C 201.132812 10.230469 200.585938 9.980469 199.960938 9.980469 C 199.367188 9.980469 198.804688 10.199219 198.351562 10.605469 C 197.789062 11.089844 197.460938 11.949219 197.460938 12.917969 C 197.460938 14.574219 198.320312 15.605469 199.695312 15.605469 C 200.835938 15.605469 201.726562 14.902344 202.226562 13.605469 Z M 198.351562 11.792969 C 198.476562 10.855469 198.882812 10.417969 199.617188 10.417969 C 200.335938 10.417969 200.632812 10.746094 200.789062 11.792969 Z M 198.351562 11.792969 "/>
<path style=" stroke:none;fill-rule:nonzero;fill:rgb(0%,0%,0%);fill-opacity:1;" d="M 202.65625 10.730469 C 202.734375 10.683594 202.84375 10.667969 202.984375 10.667969 C 203.3125 10.667969 203.421875 10.855469 203.421875 11.433594 L 203.421875 14.402344 C 203.421875 15.089844 203.296875 15.246094 202.6875 15.308594 L 202.6875 15.480469 L 205.21875 15.480469 L 205.21875 15.308594 C 204.609375 15.246094 204.421875 15.105469 204.421875 14.683594 L 204.421875 11.324219 C 205 10.777344 205.265625 10.636719 205.65625 10.636719 C 206.25 10.636719 206.53125 11.011719 206.53125 11.792969 L 206.53125 14.292969 C 206.53125 15.042969 206.375 15.246094 205.78125 15.308594 L 205.78125 15.480469 L 208.265625 15.480469 L 208.265625 15.308594 C 207.6875 15.246094 207.53125 15.105469 207.53125 14.511719 L 207.53125 11.777344 C 207.53125 10.652344 207.015625 9.980469 206.125 9.980469 C 205.578125 9.980469 205.203125 10.183594 204.390625 10.949219 L 204.390625 10.011719 L 204.3125 9.980469 C 203.71875 10.199219 203.3125 10.324219 202.65625 10.527344 Z M 202.65625 10.730469 "/>
<path style=" stroke:none;fill-rule:nonzero;fill:rgb(0%,0%,0%);fill-opacity:1;" d="M 213.324219 13.527344 C 212.746094 14.433594 212.246094 14.777344 211.480469 14.777344 C 210.792969 14.777344 210.277344 14.433594 209.933594 13.746094 C 209.714844 13.292969 209.636719 12.902344 209.605469 12.167969 L 213.292969 12.167969 C 213.199219 11.386719 213.074219 11.042969 212.777344 10.667969 C 212.417969 10.230469 211.871094 9.980469 211.246094 9.980469 C 210.652344 9.980469 210.089844 10.199219 209.636719 10.605469 C 209.074219 11.089844 208.746094 11.949219 208.746094 12.917969 C 208.746094 14.574219 209.605469 15.605469 210.980469 15.605469 C 212.121094 15.605469 213.011719 14.902344 213.511719 13.605469 Z M 209.636719 11.792969 C 209.761719 10.855469 210.167969 10.417969 210.902344 10.417969 C 211.621094 10.417969 211.917969 10.746094 212.074219 11.792969 Z M 209.636719 11.792969 "/>
<path style=" stroke:none;fill-rule:nonzero;fill:rgb(0%,0%,0%);fill-opacity:1;" d="M 213.835938 10.824219 C 214.007812 10.777344 214.117188 10.777344 214.257812 10.777344 C 214.554688 10.777344 214.664062 10.964844 214.664062 11.480469 L 214.664062 14.480469 C 214.664062 15.074219 214.585938 15.152344 213.820312 15.308594 L 213.820312 15.480469 L 216.679688 15.480469 L 216.679688 15.308594 C 215.867188 15.261719 215.664062 15.089844 215.664062 14.402344 L 215.664062 11.714844 C 215.664062 11.339844 216.179688 10.730469 216.507812 10.730469 C 216.585938 10.730469 216.679688 10.792969 216.820312 10.917969 C 217.007812 11.074219 217.132812 11.152344 217.289062 11.152344 C 217.585938 11.152344 217.757812 10.949219 217.757812 10.621094 C 217.757812 10.214844 217.507812 9.980469 217.101562 9.980469 C 216.601562 9.980469 216.257812 10.261719 215.664062 11.105469 L 215.664062 10.011719 L 215.617188 9.980469 C 214.976562 10.246094 214.539062 10.402344 213.835938 10.621094 Z M 213.835938 10.824219 "/>
<path style=" stroke:none;fill-rule:nonzero;fill:rgb(0%,0%,0%);fill-opacity:1;" d="M 223.019531 14.699219 C 222.816406 14.855469 222.675781 14.917969 222.488281 14.917969 C 222.222656 14.917969 222.144531 14.746094 222.144531 14.230469 L 222.144531 11.902344 C 222.144531 11.277344 222.082031 10.933594 221.894531 10.636719 C 221.628906 10.214844 221.113281 9.980469 220.410156 9.980469 C 219.285156 9.980469 218.410156 10.574219 218.410156 11.324219 C 218.410156 11.589844 218.644531 11.839844 218.925781 11.839844 C 219.207031 11.839844 219.457031 11.589844 219.457031 11.339844 C 219.457031 11.277344 219.441406 11.230469 219.441406 11.136719 C 219.410156 11.027344 219.394531 10.933594 219.394531 10.855469 C 219.394531 10.527344 219.785156 10.261719 220.253906 10.261719 C 220.847656 10.261719 221.175781 10.621094 221.175781 11.261719 L 221.175781 11.996094 C 219.332031 12.730469 219.128906 12.824219 218.613281 13.277344 C 218.347656 13.527344 218.175781 13.933594 218.175781 14.324219 C 218.175781 15.074219 218.707031 15.605469 219.441406 15.605469 C 219.957031 15.605469 220.457031 15.355469 221.175781 14.730469 C 221.238281 15.355469 221.457031 15.605469 221.941406 15.605469 C 222.347656 15.605469 222.597656 15.449219 223.019531 14.996094 Z M 221.175781 14.011719 C 221.175781 14.386719 221.113281 14.496094 220.863281 14.636719 C 220.566406 14.792969 220.238281 14.902344 219.988281 14.902344 C 219.566406 14.902344 219.238281 14.496094 219.238281 13.980469 L 219.238281 13.933594 C 219.238281 13.230469 219.722656 12.808594 221.175781 12.277344 Z M 221.175781 14.011719 "/>
<path style=" stroke:none;fill-rule:nonzero;fill:rgb(0%,0%,0%);fill-opacity:1;" d="M 226.09375 10.105469 L 224.890625 10.105469 L 224.890625 8.714844 C 224.890625 8.589844 224.875 8.558594 224.796875 8.558594 C 224.71875 8.667969 224.65625 8.777344 224.5625 8.886719 C 224.109375 9.558594 223.59375 10.121094 223.40625 10.167969 C 223.28125 10.261719 223.203125 10.339844 223.203125 10.402344 C 223.203125 10.433594 223.21875 10.464844 223.25 10.480469 L 223.890625 10.480469 L 223.890625 14.074219 C 223.890625 15.089844 224.234375 15.605469 224.953125 15.605469 C 225.53125 15.605469 225.984375 15.308594 226.375 14.699219 L 226.21875 14.558594 C 225.96875 14.855469 225.765625 14.980469 225.515625 14.980469 C 225.0625 14.980469 224.890625 14.652344 224.890625 13.902344 L 224.890625 10.480469 L 226.09375 10.480469 Z M 226.09375 10.105469 "/>
<path style=" stroke:none;fill-rule:nonzero;fill:rgb(0%,0%,0%);fill-opacity:1;" d="M 229.351562 9.980469 C 227.804688 9.980469 226.710938 11.136719 226.710938 12.777344 C 226.710938 14.386719 227.820312 15.605469 229.335938 15.605469 C 230.835938 15.605469 231.992188 14.339844 231.992188 12.683594 C 231.992188 11.121094 230.882812 9.980469 229.351562 9.980469 Z M 229.195312 10.324219 C 230.210938 10.324219 230.914062 11.464844 230.914062 13.105469 C 230.914062 14.449219 230.367188 15.261719 229.476562 15.261719 C 229.007812 15.261719 228.570312 14.980469 228.320312 14.496094 C 227.976562 13.871094 227.789062 13.042969 227.789062 12.199219 C 227.789062 11.058594 228.351562 10.324219 229.195312 10.324219 Z M 229.195312 10.324219 "/>
<path style=" stroke:none;fill-rule:nonzero;fill:rgb(0%,0%,0%);fill-opacity:1;" d="M 232.425781 10.824219 C 232.597656 10.777344 232.707031 10.777344 232.847656 10.777344 C 233.144531 10.777344 233.253906 10.964844 233.253906 11.480469 L 233.253906 14.480469 C 233.253906 15.074219 233.175781 15.152344 232.410156 15.308594 L 232.410156 15.480469 L 235.269531 15.480469 L 235.269531 15.308594 C 234.457031 15.261719 234.253906 15.089844 234.253906 14.402344 L 234.253906 11.714844 C 234.253906 11.339844 234.769531 10.730469 235.097656 10.730469 C 235.175781 10.730469 235.269531 10.792969 235.410156 10.917969 C 235.597656 11.074219 235.722656 11.152344 235.878906 11.152344 C 236.175781 11.152344 236.347656 10.949219 236.347656 10.621094 C 236.347656 10.214844 236.097656 9.980469 235.691406 9.980469 C 235.191406 9.980469 234.847656 10.261719 234.253906 11.105469 L 234.253906 10.011719 L 234.207031 9.980469 C 233.566406 10.246094 233.128906 10.402344 232.425781 10.621094 Z M 232.425781 10.824219 "/>
<path style=" stroke:none;fill-rule:nonzero;fill:rgb(0%,0%,0%);fill-opacity:1;" d="M 242.300781 9.980469 C 240.753906 9.980469 239.660156 11.136719 239.660156 12.777344 C 239.660156 14.386719 240.769531 15.605469 242.285156 15.605469 C 243.785156 15.605469 244.941406 14.339844 244.941406 12.683594 C 244.941406 11.121094 243.832031 9.980469 242.300781 9.980469 Z M 242.144531 10.324219 C 243.160156 10.324219 243.863281 11.464844 243.863281 13.105469 C 243.863281 14.449219 243.316406 15.261719 242.425781 15.261719 C 241.957031 15.261719 241.519531 14.980469 241.269531 14.496094 C 240.925781 13.871094 240.738281 13.042969 240.738281 12.199219 C 240.738281 11.058594 241.300781 10.324219 242.144531 10.324219 Z M 242.144531 10.324219 "/>
<path style=" stroke:none;fill-rule:nonzero;fill:rgb(0%,0%,0%);fill-opacity:1;" d="M 248.980469 10.105469 L 247.511719 10.105469 L 247.511719 8.714844 C 247.511719 8.027344 247.746094 7.652344 248.199219 7.652344 C 248.449219 7.652344 248.621094 7.777344 248.824219 8.121094 C 249.027344 8.433594 249.167969 8.542969 249.371094 8.542969 C 249.636719 8.542969 249.871094 8.339844 249.871094 8.058594 C 249.871094 7.621094 249.339844 7.324219 248.621094 7.324219 C 247.886719 7.324219 247.246094 7.636719 246.949219 8.183594 C 246.636719 8.714844 246.542969 9.152344 246.527344 10.105469 L 245.542969 10.105469 L 245.542969 10.480469 L 246.527344 10.480469 L 246.527344 14.230469 C 246.527344 15.105469 246.386719 15.246094 245.527344 15.308594 L 245.527344 15.480469 L 248.636719 15.480469 L 248.636719 15.308594 C 247.652344 15.261719 247.527344 15.136719 247.527344 14.230469 L 247.527344 10.480469 L 248.980469 10.480469 Z M 248.980469 10.105469 "/>
<path style=" stroke:none;fill-rule:nonzero;fill:rgb(0%,0%,0%);fill-opacity:1;" d="M 254.6875 11.996094 C 254.984375 12.027344 255.1875 12.042969 255.5 12.042969 C 256.4375 12.042969 257.078125 11.917969 257.59375 11.636719 C 258.3125 11.246094 258.75 10.527344 258.75 9.730469 C 258.75 9.230469 258.578125 8.777344 258.25 8.433594 C 257.78125 7.902344 256.734375 7.574219 255.609375 7.574219 L 252.453125 7.574219 L 252.453125 7.792969 C 253.34375 7.886719 253.453125 8.011719 253.453125 8.871094 L 253.453125 14.042969 C 253.453125 15.042969 253.359375 15.167969 252.453125 15.246094 L 252.453125 15.480469 L 255.796875 15.480469 L 255.796875 15.246094 C 254.859375 15.214844 254.6875 15.042969 254.6875 14.183594 Z M 254.6875 8.417969 C 254.6875 8.089844 254.765625 8.011719 255.09375 8.011719 C 256.703125 8.011719 257.4375 8.574219 257.4375 9.808594 C 257.4375 10.964844 256.734375 11.558594 255.359375 11.558594 C 255.125 11.558594 254.953125 11.542969 254.6875 11.527344 Z M 254.6875 8.417969 "/>
<path style=" stroke:none;fill-rule:nonzero;fill:rgb(0%,0%,0%);fill-opacity:1;" d="M 262.34375 16.132812 L 262.21875 16.085938 C 261.890625 16.601562 261.765625 16.679688 261.375 16.679688 L 259.21875 16.679688 L 260.734375 15.101562 C 261.53125 14.273438 261.875 13.585938 261.875 12.898438 C 261.875 11.992188 261.15625 11.304688 260.21875 11.304688 C 259.734375 11.304688 259.265625 11.507812 258.9375 11.867188 C 258.640625 12.164062 258.515625 12.445312 258.359375 13.085938 L 258.546875 13.132812 C 258.90625 12.257812 259.21875 11.960938 259.84375 11.960938 C 260.59375 11.960938 261.109375 12.476562 261.109375 13.226562 C 261.109375 13.929688 260.703125 14.773438 259.9375 15.570312 L 258.34375 17.257812 L 258.34375 17.367188 L 261.84375 17.367188 Z M 262.34375 16.132812 "/>
<g clip-path="url(#clip5)" clip-rule="nonzero">
<path style="fill:none;stroke-width:0.585;stroke-linecap:butt;stroke-linejoin:miter;stroke:rgb(0%,0%,0%);stroke-opacity:1;stroke-miterlimit:10;" d="M 142.566406 -22.015625 L 268.039062 -22.015625 " transform="matrix(1,0,0,-1,0,0)"/>
</g>
<path style=" stroke:none;fill-rule:nonzero;fill:rgb(0%,0%,0%);fill-opacity:1;" d="M 151.8125 33.273438 C 152.5 34.132812 153.34375 34.617188 154.09375 34.617188 C 155.09375 34.617188 155.765625 33.882812 155.765625 32.820312 C 155.765625 31.757812 155.0625 31.039062 154.03125 31.039062 C 153.234375 31.039062 152.46875 31.507812 151.8125 32.367188 C 151.125 31.507812 150.34375 31.039062 149.59375 31.039062 C 148.59375 31.039062 147.859375 31.789062 147.859375 32.851562 C 147.859375 33.882812 148.546875 34.617188 149.546875 34.617188 C 150.21875 34.617188 150.90625 34.289062 151.453125 33.695312 Z M 152.21875 32.835938 C 152.734375 32.117188 153.4375 31.664062 154.078125 31.664062 C 154.71875 31.664062 155.171875 32.148438 155.171875 32.835938 C 155.171875 33.539062 154.75 33.992188 154.109375 33.992188 C 153.46875 33.992188 153.0625 33.726562 152.21875 32.835938 Z M 151.421875 32.820312 C 150.84375 33.554688 150.109375 33.992188 149.5 33.992188 C 148.875 33.992188 148.453125 33.507812 148.453125 32.820312 C 148.453125 32.132812 148.890625 31.664062 149.546875 31.664062 C 150.109375 31.664062 150.65625 31.976562 151.34375 32.710938 C 151.390625 32.757812 151.390625 32.757812 151.421875 32.820312 Z M 151.421875 32.820312 "/>
<path style=" stroke:none;fill-rule:nonzero;fill:rgb(0%,0%,0%);fill-opacity:1;" d="M 193.816406 35.210938 C 193.613281 35.367188 193.472656 35.429688 193.285156 35.429688 C 193.019531 35.429688 192.941406 35.257812 192.941406 34.742188 L 192.941406 32.414062 C 192.941406 31.789062 192.878906 31.445312 192.691406 31.148438 C 192.425781 30.726562 191.910156 30.492188 191.207031 30.492188 C 190.082031 30.492188 189.207031 31.085938 189.207031 31.835938 C 189.207031 32.101562 189.441406 32.351562 189.722656 32.351562 C 190.003906 32.351562 190.253906 32.101562 190.253906 31.851562 C 190.253906 31.789062 190.238281 31.742188 190.238281 31.648438 C 190.207031 31.539062 190.191406 31.445312 190.191406 31.367188 C 190.191406 31.039062 190.582031 30.773438 191.050781 30.773438 C 191.644531 30.773438 191.972656 31.132812 191.972656 31.773438 L 191.972656 32.507812 C 190.128906 33.242188 189.925781 33.335938 189.410156 33.789062 C 189.144531 34.039062 188.972656 34.445312 188.972656 34.835938 C 188.972656 35.585938 189.503906 36.117188 190.238281 36.117188 C 190.753906 36.117188 191.253906 35.867188 191.972656 35.242188 C 192.035156 35.867188 192.253906 36.117188 192.738281 36.117188 C 193.144531 36.117188 193.394531 35.960938 193.816406 35.507812 Z M 191.972656 34.523438 C 191.972656 34.898438 191.910156 35.007812 191.660156 35.148438 C 191.363281 35.304688 191.035156 35.414062 190.785156 35.414062 C 190.363281 35.414062 190.035156 35.007812 190.035156 34.492188 L 190.035156 34.445312 C 190.035156 33.742188 190.519531 33.320312 191.972656 32.789062 Z M 191.972656 34.523438 "/>
<path style=" stroke:none;fill-rule:nonzero;fill:rgb(0%,0%,0%);fill-opacity:1;" d="M 198.777344 30.417969 L 198.652344 30.371094 C 198.324219 30.886719 198.199219 30.964844 197.808594 30.964844 L 195.652344 30.964844 L 197.167969 29.386719 C 197.964844 28.558594 198.308594 27.871094 198.308594 27.183594 C 198.308594 26.277344 197.589844 25.589844 196.652344 25.589844 C 196.167969 25.589844 195.699219 25.792969 195.371094 26.152344 C 195.074219 26.449219 194.949219 26.730469 194.792969 27.371094 L 194.980469 27.417969 C 195.339844 26.542969 195.652344 26.246094 196.277344 26.246094 C 197.027344 26.246094 197.542969 26.761719 197.542969 27.511719 C 197.542969 28.214844 197.136719 29.058594 196.371094 29.855469 L 194.777344 31.542969 L 194.777344 31.652344 L 198.277344 31.652344 Z M 198.777344 30.417969 "/>
<path style=" stroke:none;fill-rule:nonzero;fill:rgb(0%,0%,0%);fill-opacity:1;" d="M 150.578125 42.4375 C 149.921875 42.4375 149.421875 42.640625 148.984375 43.0625 C 148.28125 43.71875 147.828125 45.09375 147.828125 46.5 C 147.828125 47.796875 148.234375 49.203125 148.796875 49.875 C 149.234375 50.390625 149.84375 50.6875 150.53125 50.6875 C 151.140625 50.6875 151.65625 50.484375 152.09375 50.0625 C 152.78125 49.40625 153.234375 48.015625 153.234375 46.578125 C 153.234375 44.125 152.15625 42.4375 150.578125 42.4375 Z M 150.546875 42.75 C 151.546875 42.75 152.09375 44.09375 152.09375 46.59375 C 152.09375 49.09375 151.5625 50.375 150.53125 50.375 C 149.5 50.375 148.984375 49.09375 148.984375 46.609375 C 148.984375 44.078125 149.515625 42.75 150.546875 42.75 Z M 150.546875 42.75 "/>
<path style=" stroke:none;fill-rule:nonzero;fill:rgb(0%,0%,0%);fill-opacity:1;" d="M 190.363281 42.375 L 190.300781 42.359375 C 189.800781 42.53125 189.472656 42.625 188.910156 42.78125 L 188.566406 42.875 L 188.566406 43.0625 C 188.644531 43.0625 188.691406 43.0625 188.769531 43.0625 C 189.253906 43.0625 189.363281 43.171875 189.363281 43.671875 L 189.363281 49.875 C 189.363281 50.234375 190.378906 50.640625 191.332031 50.640625 C 192.910156 50.640625 194.128906 49.328125 194.128906 47.609375 C 194.128906 46.140625 193.222656 45.015625 192.019531 45.015625 C 191.300781 45.015625 190.597656 45.453125 190.363281 46.03125 Z M 190.363281 46.671875 C 190.363281 46.203125 190.925781 45.765625 191.550781 45.765625 C 192.472656 45.765625 193.082031 46.703125 193.082031 48.15625 C 193.082031 49.484375 192.503906 50.25 191.519531 50.25 C 190.894531 50.25 190.363281 49.984375 190.363281 49.671875 Z M 190.363281 46.671875 "/>
<path style=" stroke:none;fill-rule:nonzero;fill:rgb(0%,0%,0%);fill-opacity:1;" d="M 198.777344 44.941406 L 198.652344 44.894531 C 198.324219 45.410156 198.199219 45.488281 197.808594 45.488281 L 195.652344 45.488281 L 197.167969 43.910156 C 197.964844 43.082031 198.308594 42.394531 198.308594 41.707031 C 198.308594 40.800781 197.589844 40.113281 196.652344 40.113281 C 196.167969 40.113281 195.699219 40.316406 195.371094 40.675781 C 195.074219 40.972656 194.949219 41.253906 194.792969 41.894531 L 194.980469 41.941406 C 195.339844 41.066406 195.652344 40.769531 196.277344 40.769531 C 197.027344 40.769531 197.542969 41.285156 197.542969 42.035156 C 197.542969 42.738281 197.136719 43.582031 196.371094 44.378906 L 194.777344 46.066406 L 194.777344 46.175781 L 198.277344 46.175781 Z M 198.777344 44.941406 "/>
<path style=" stroke:none;fill-rule:nonzero;fill:rgb(0%,0%,0%);fill-opacity:1;" d="M 151.03125 56.960938 L 148.875 58.039062 L 148.875 58.210938 C 149.015625 58.148438 149.15625 58.101562 149.203125 58.085938 C 149.40625 57.992188 149.609375 57.945312 149.734375 57.945312 C 149.984375 57.945312 150.09375 58.132812 150.09375 58.507812 L 150.09375 63.929688 C 150.09375 64.320312 150 64.601562 149.8125 64.710938 C 149.625 64.804688 149.453125 64.851562 148.953125 64.867188 L 148.953125 65.039062 L 152.25 65.039062 L 152.25 64.867188 C 151.3125 64.851562 151.125 64.726562 151.125 64.148438 L 151.125 56.976562 Z M 151.03125 56.960938 "/>
<path style=" stroke:none;fill-rule:nonzero;fill:rgb(0%,0%,0%);fill-opacity:1;" d="M 192.238281 68.007812 C 191.800781 67.652344 191.417969 67.246094 191.097656 66.789062 C 190.773438 66.339844 190.507812 65.855469 190.300781 65.335938 C 190.101562 64.828125 189.949219 64.296875 189.847656 63.742188 C 189.742188 63.179688 189.691406 62.617188 189.691406 62.054688 C 189.691406 61.484375 189.742188 60.914062 189.847656 60.351562 C 189.949219 59.789062 190.105469 59.253906 190.316406 58.742188 C 190.523438 58.222656 190.789062 57.738281 191.113281 57.289062 C 191.433594 56.832031 191.808594 56.4375 192.238281 56.101562 C 192.238281 56.082031 192.257812 56.070312 192.300781 56.070312 L 192.410156 56.070312 C 192.429688 56.070312 192.449219 56.082031 192.472656 56.101562 C 192.492188 56.125 192.503906 56.148438 192.503906 56.179688 C 192.503906 56.210938 192.496094 56.238281 192.488281 56.257812 C 192.089844 56.632812 191.761719 57.039062 191.503906 57.476562 C 191.242188 57.914062 191.035156 58.382812 190.878906 58.882812 C 190.722656 59.375 190.605469 59.882812 190.535156 60.414062 C 190.472656 60.9375 190.441406 61.484375 190.441406 62.054688 C 190.441406 64.585938 191.117188 66.507812 192.472656 67.820312 C 192.492188 67.839844 192.503906 67.875 192.503906 67.929688 C 192.503906 67.9375 192.492188 67.953125 192.472656 67.976562 C 192.449219 68.007812 192.429688 68.023438 192.410156 68.023438 L 192.300781 68.023438 C 192.257812 68.023438 192.238281 68.015625 192.238281 68.007812 Z M 192.238281 68.007812 "/>
<path style=" stroke:none;fill-rule:nonzero;fill:rgb(0%,0%,0%);fill-opacity:1;" d="M 198.453125 64.257812 C 198.25 64.414062 198.109375 64.476562 197.921875 64.476562 C 197.65625 64.476562 197.578125 64.304688 197.578125 63.789062 L 197.578125 61.460938 C 197.578125 60.835938 197.515625 60.492188 197.328125 60.195312 C 197.0625 59.773438 196.546875 59.539062 195.84375 59.539062 C 194.71875 59.539062 193.84375 60.132812 193.84375 60.882812 C 193.84375 61.148438 194.078125 61.398438 194.359375 61.398438 C 194.640625 61.398438 194.890625 61.148438 194.890625 60.898438 C 194.890625 60.835938 194.875 60.789062 194.875 60.695312 C 194.84375 60.585938 194.828125 60.492188 194.828125 60.414062 C 194.828125 60.085938 195.21875 59.820312 195.6875 59.820312 C 196.28125 59.820312 196.609375 60.179688 196.609375 60.820312 L 196.609375 61.554688 C 194.765625 62.289062 194.5625 62.382812 194.046875 62.835938 C 193.78125 63.085938 193.609375 63.492188 193.609375 63.882812 C 193.609375 64.632812 194.140625 65.164062 194.875 65.164062 C 195.390625 65.164062 195.890625 64.914062 196.609375 64.289062 C 196.671875 64.914062 196.890625 65.164062 197.375 65.164062 C 197.78125 65.164062 198.03125 65.007812 198.453125 64.554688 Z M 196.609375 63.570312 C 196.609375 63.945312 196.546875 64.054688 196.296875 64.195312 C 196 64.351562 195.671875 64.460938 195.421875 64.460938 C 195 64.460938 194.671875 64.054688 194.671875 63.539062 L 194.671875 63.492188 C 194.671875 62.789062 195.15625 62.367188 196.609375 61.835938 Z M 196.609375 63.570312 "/>
<path style=" stroke:none;fill-rule:nonzero;fill:rgb(0%,0%,0%);fill-opacity:1;" d="M 200.980469 56.898438 L 200.917969 56.882812 C 200.417969 57.054688 200.089844 57.148438 199.527344 57.304688 L 199.183594 57.398438 L 199.183594 57.585938 C 199.261719 57.585938 199.308594 57.585938 199.386719 57.585938 C 199.871094 57.585938 199.980469 57.695312 199.980469 58.195312 L 199.980469 64.398438 C 199.980469 64.757812 200.996094 65.164062 201.949219 65.164062 C 203.527344 65.164062 204.746094 63.851562 204.746094 62.132812 C 204.746094 60.664062 203.839844 59.539062 202.636719 59.539062 C 201.917969 59.539062 201.214844 59.976562 200.980469 60.554688 Z M 200.980469 61.195312 C 200.980469 60.726562 201.542969 60.289062 202.167969 60.289062 C 203.089844 60.289062 203.699219 61.226562 203.699219 62.679688 C 203.699219 64.007812 203.121094 64.773438 202.136719 64.773438 C 201.511719 64.773438 200.980469 64.507812 200.980469 64.195312 Z M 200.980469 61.195312 "/>
<path style=" stroke:none;fill-rule:nonzero;fill:rgb(0%,0%,0%);fill-opacity:1;" d="M 205.910156 68.023438 C 205.835938 68.023438 205.800781 67.992188 205.800781 67.929688 C 205.800781 67.886719 205.804688 67.859375 205.816406 67.851562 C 207.179688 66.515625 207.863281 64.585938 207.863281 62.054688 C 207.863281 59.523438 207.191406 57.597656 205.847656 56.273438 C 205.816406 56.253906 205.800781 56.222656 205.800781 56.179688 C 205.800781 56.148438 205.808594 56.125 205.832031 56.101562 C 205.851562 56.082031 205.878906 56.070312 205.910156 56.070312 L 206.019531 56.070312 C 206.039062 56.070312 206.058594 56.082031 206.082031 56.101562 C 206.644531 56.550781 207.117188 57.097656 207.503906 57.742188 C 207.886719 58.390625 208.167969 59.082031 208.347656 59.820312 C 208.523438 60.550781 208.613281 61.296875 208.613281 62.054688 C 208.613281 62.617188 208.558594 63.175781 208.457031 63.726562 C 208.363281 64.269531 208.210938 64.804688 208.003906 65.335938 C 207.792969 65.867188 207.527344 66.355469 207.207031 66.804688 C 206.894531 67.25 206.519531 67.652344 206.082031 68.007812 C 206.058594 68.015625 206.039062 68.023438 206.019531 68.023438 Z M 205.910156 68.023438 "/>
<path style=" stroke:none;fill-rule:nonzero;fill:rgb(0%,0%,0%);fill-opacity:1;" d="M 214.03125 59.464844 L 213.90625 59.417969 C 213.578125 59.933594 213.453125 60.011719 213.0625 60.011719 L 210.90625 60.011719 L 212.421875 58.433594 C 213.21875 57.605469 213.5625 56.917969 213.5625 56.230469 C 213.5625 55.324219 212.84375 54.636719 211.90625 54.636719 C 211.421875 54.636719 210.953125 54.839844 210.625 55.199219 C 210.328125 55.496094 210.203125 55.777344 210.046875 56.417969 L 210.234375 56.464844 C 210.59375 55.589844 210.90625 55.292969 211.53125 55.292969 C 212.28125 55.292969 212.796875 55.808594 212.796875 56.558594 C 212.796875 57.261719 212.390625 58.105469 211.625 58.902344 L 210.03125 60.589844 L 210.03125 60.699219 L 213.53125 60.699219 Z M 214.03125 59.464844 "/>
<g clip-path="url(#clip6)" clip-rule="nonzero">
<path style="fill:none;stroke-width:0.936;stroke-linecap:butt;stroke-linejoin:miter;stroke:rgb(0%,0%,0%);stroke-opacity:1;stroke-miterlimit:10;" d="M 142.566406 -71.75 L 268.039062 -71.75 " transform="matrix(1,0,0,-1,0,0)"/>
</g>
</g>
</svg>
