<?xml version="1.0" encoding="UTF-8"?>
<svg xmlns="http://www.w3.org/2000/svg" xmlns:xlink="http://www.w3.org/1999/xlink" width="282.607849pt" height="144.000015pt" viewBox="0 0 282.607849 144.000015" version="1.1">
<defs>
<clipPath id="clip1">
  <path d="M 62 63 L 141.945312 63 L 141.945312 117 L 62 117 Z M 62 63 "/>
</clipPath>
<clipPath id="clip2">
  <path d="M 156 28 L 282.609375 28 L 282.609375 30 L 156 30 Z M 156 28 "/>
</clipPath>
<clipPath id="clip3">
  <path d="M 156 49 L 282.609375 49 L 282.609375 50 L 156 50 Z M 156 49 "/>
</clipPath>
<clipPath id="clip4">
  <path d="M 156 113 L 282.609375 113 L 282.609375 115 L 156 115 Z M 156 113 "/>
</clipPath>
</defs>
<g id="surface1">
<path style=" stroke:none;fill-rule:evenodd;fill:rgb(0%,48.626709%,96.861267%);fill-opacity:1;" d="M 71.152344 108 L 134.152344 72 L 71.152344 36 Z M 71.152344 108 "/>
<path style=" stroke:none;fill-rule:evenodd;fill:rgb(100%,73.724365%,23.529053%);fill-opacity:1;" d="M 71.152344 108 L 8.152344 72 L 71.152344 36 Z M 71.152344 108 "/>
<path style=" stroke:none;fill-rule:evenodd;fill:rgb(100%,73.724365%,23.529053%);fill-opacity:1;" d="M 134.152344 144 L 71.152344 108 L 134.152344 72 Z M 134.152344 144 "/>
<path style=" stroke:none;fill-rule:evenodd;fill:rgb(100%,73.724365%,23.529053%);fill-opacity:1;" d="M 134.152344 72 L 71.152344 36 L 134.152344 0 Z M 134.152344 72 "/>
<g clip-path="url(#clip1)" clip-rule="nonzero">
<path style="fill:none;stroke-width:1.5;stroke-linecap:butt;stroke-linejoin:miter;stroke:rgb(0%,0%,0%);stroke-opacity:1;stroke-miterlimit:4;" d="M 71.152344 108 L 134.152344 72 "/>
</g>
<path style="fill:none;stroke-width:1.5;stroke-linecap:butt;stroke-linejoin:miter;stroke:rgb(0%,0%,0%);stroke-opacity:1;stroke-miterlimit:4;" d="M 71.152344 108 L 71.152344 36 "/>
<path style="fill:none;stroke-width:1.5;stroke-linecap:butt;stroke-linejoin:miter;stroke:rgb(0%,0%,0%);stroke-opacity:1;stroke-miterlimit:4;" d="M 71.152344 108 L 8.152344 72 "/>
<path style=" stroke:none;fill-rule:nonzero;fill:rgb(0%,0%,0%);fill-opacity:1;" d="M 72.839844 108 C 72.839844 108.933594 72.085938 109.6875 71.152344 109.6875 C 70.222656 109.6875 69.464844 108.933594 69.464844 108 C 69.464844 107.066406 70.222656 106.3125 71.152344 106.3125 C 72.085938 106.3125 72.839844 107.066406 72.839844 108 Z M 72.839844 108 "/>
<path style=" stroke:none;fill-rule:nonzero;fill:rgb(0%,0%,0%);fill-opacity:1;" d="M 72.839844 36 C 72.839844 36.933594 72.085938 37.6875 71.152344 37.6875 C 70.222656 37.6875 69.464844 36.933594 69.464844 36 C 69.464844 35.066406 70.222656 34.3125 71.152344 34.3125 C 72.085938 34.3125 72.839844 35.066406 72.839844 36 Z M 72.839844 36 "/>
<path style=" stroke:none;fill-rule:nonzero;fill:rgb(0%,0%,0%);fill-opacity:1;" d="M 135.839844 72 C 135.839844 72.933594 135.085938 73.6875 134.152344 73.6875 C 133.222656 73.6875 132.464844 72.933594 132.464844 72 C 132.464844 71.066406 133.222656 70.3125 134.152344 70.3125 C 135.085938 70.3125 135.839844 71.066406 135.839844 72 Z M 135.839844 72 "/>
<path style=" stroke:none;fill-rule:nonzero;fill:rgb(0%,0%,0%);fill-opacity:1;" d="M 9.839844 72 C 9.839844 72.933594 9.085938 73.6875 8.152344 73.6875 C 7.222656 73.6875 6.464844 72.933594 6.464844 72 C 6.464844 71.066406 7.222656 70.3125 8.152344 70.3125 C 9.085938 70.3125 9.839844 71.066406 9.839844 72 Z M 9.839844 72 "/>
<path style=" stroke:none;fill-rule:nonzero;fill:rgb(0%,0%,0%);fill-opacity:1;" d="M 69.632812 113.9375 C 69.632812 113.042969 69.578125 112.144531 69.191406 111.320312 C 68.683594 110.230469 67.75 110.054688 67.292969 110.054688 C 66.609375 110.054688 65.800781 110.351562 65.324219 111.390625 C 64.972656 112.164062 64.921875 113.042969 64.921875 113.9375 C 64.921875 114.78125 64.957031 115.785156 65.429688 116.644531 C 65.90625 117.542969 66.730469 117.769531 67.277344 117.769531 C 67.875 117.769531 68.734375 117.542969 69.226562 116.46875 C 69.578125 115.695312 69.632812 114.816406 69.632812 113.9375 Z M 67.277344 117.523438 C 66.835938 117.523438 66.167969 117.242188 65.976562 116.171875 C 65.851562 115.503906 65.851562 114.464844 65.851562 113.796875 C 65.851562 113.078125 65.851562 112.339844 65.941406 111.742188 C 66.152344 110.40625 66.996094 110.300781 67.277344 110.300781 C 67.644531 110.300781 68.382812 110.511719 68.59375 111.617188 C 68.71875 112.25 68.71875 113.09375 68.71875 113.796875 C 68.71875 114.640625 68.71875 115.398438 68.59375 116.117188 C 68.417969 117.191406 67.785156 117.523438 67.277344 117.523438 Z M 67.277344 117.523438 "/>
<path style=" stroke:none;fill-rule:nonzero;fill:rgb(0%,0%,0%);fill-opacity:1;" d="M 64.605469 32.046875 C 64.007812 31.292969 63.867188 31.117188 63.515625 30.835938 C 62.882812 30.324219 62.265625 30.132812 61.6875 30.132812 C 60.386719 30.132812 59.523438 31.363281 59.523438 32.679688 C 59.523438 33.964844 60.351562 35.210938 61.652344 35.210938 C 62.933594 35.210938 63.867188 34.191406 64.410156 33.296875 C 65.027344 34.050781 65.148438 34.226562 65.5 34.507812 C 66.132812 35.019531 66.765625 35.210938 67.328125 35.210938 C 68.648438 35.210938 69.492188 33.980469 69.492188 32.664062 C 69.492188 31.378906 68.664062 30.132812 67.382812 30.132812 C 66.082031 30.132812 65.148438 31.152344 64.605469 32.046875 Z M 64.902344 32.433594 C 65.359375 31.625 66.1875 30.484375 67.453125 30.484375 C 68.648438 30.484375 69.246094 31.660156 69.246094 32.664062 C 69.246094 33.769531 68.488281 34.667969 67.503906 34.667969 C 66.855469 34.667969 66.363281 34.210938 66.117188 33.964844 C 65.835938 33.664062 65.589844 33.3125 64.902344 32.433594 Z M 64.128906 32.910156 C 63.671875 33.71875 62.828125 34.859375 61.5625 34.859375 C 60.386719 34.859375 59.769531 33.683594 59.769531 32.679688 C 59.769531 31.574219 60.527344 30.675781 61.511719 30.675781 C 62.160156 30.675781 62.671875 31.132812 62.898438 31.378906 C 63.179688 31.679688 63.445312 32.03125 64.128906 32.910156 Z M 64.128906 32.910156 "/>
<path style=" stroke:none;fill-rule:nonzero;fill:rgb(0%,0%,0%);fill-opacity:1;" d="M 139.554688 68.472656 C 139.554688 68.191406 139.554688 68.175781 139.292969 68.175781 C 138.589844 68.894531 137.605469 68.894531 137.253906 68.894531 L 137.253906 69.246094 C 137.480469 69.246094 138.132812 69.246094 138.710938 68.949219 L 138.710938 74.765625 C 138.710938 75.171875 138.675781 75.292969 137.675781 75.292969 L 137.324219 75.292969 L 137.324219 75.644531 C 137.710938 75.609375 138.675781 75.609375 139.132812 75.609375 C 139.574219 75.609375 140.558594 75.609375 140.945312 75.644531 L 140.945312 75.292969 L 140.59375 75.292969 C 139.574219 75.292969 139.554688 75.171875 139.554688 74.765625 Z M 139.554688 68.472656 "/>
<path style=" stroke:none;fill-rule:nonzero;fill:rgb(0%,0%,0%);fill-opacity:1;" d="M 6.449219 64.714844 C 6.644531 64.714844 6.855469 64.714844 6.855469 64.484375 C 6.855469 64.273438 6.644531 64.273438 6.449219 64.273438 L 0.386719 64.273438 C 0.191406 64.273438 0 64.273438 0 64.484375 C 0 64.714844 0.191406 64.714844 0.386719 64.714844 Z M 6.449219 64.714844 "/>
<path style=" stroke:none;fill-rule:nonzero;fill:rgb(0%,0%,0%);fill-opacity:1;" d="M 11.089844 60.125 C 11.089844 59.84375 11.089844 59.828125 10.828125 59.828125 C 10.125 60.546875 9.140625 60.546875 8.789062 60.546875 L 8.789062 60.898438 C 9.015625 60.898438 9.667969 60.898438 10.246094 60.601562 L 10.246094 66.417969 C 10.246094 66.824219 10.210938 66.945312 9.210938 66.945312 L 8.859375 66.945312 L 8.859375 67.296875 C 9.246094 67.261719 10.210938 67.261719 10.667969 67.261719 C 11.109375 67.261719 12.09375 67.261719 12.480469 67.296875 L 12.480469 66.945312 L 12.128906 66.945312 C 11.109375 66.945312 11.089844 66.824219 11.089844 66.417969 Z M 11.089844 60.125 "/>
<g clip-path="url(#clip2)" clip-rule="nonzero">
<path style="fill:none;stroke-width:0.936;stroke-linecap:butt;stroke-linejoin:miter;stroke:rgb(0%,0%,0%);stroke-opacity:1;stroke-miterlimit:10;" d="M 157.136719 -29.382812 L 282.609375 -29.382812 " transform="matrix(1,0,0,-1,0,0)"/>
</g>
<path style=" stroke:none;fill-rule:nonzero;fill:rgb(0%,0%,0%);fill-opacity:1;" d="M 170.445312 35.054688 L 167.992188 35.054688 L 167.992188 35.273438 C 168.648438 35.304688 168.867188 35.445312 168.867188 35.773438 C 168.867188 35.960938 168.789062 36.289062 168.648438 36.648438 L 166.882812 41.039062 L 165.085938 36.992188 C 164.679688 36.117188 164.585938 35.851562 164.585938 35.664062 C 164.585938 35.445312 164.757812 35.320312 165.148438 35.304688 C 165.195312 35.304688 165.320312 35.289062 165.492188 35.273438 L 165.492188 35.054688 L 162.304688 35.054688 L 162.304688 35.273438 C 162.898438 35.304688 163.054688 35.460938 163.570312 36.523438 L 166.523438 43.085938 L 166.695312 43.085938 L 169.351562 36.382812 C 169.742188 35.445312 169.867188 35.304688 170.445312 35.273438 Z M 170.445312 35.054688 "/>
<path style=" stroke:none;fill-rule:nonzero;fill:rgb(0%,0%,0%);fill-opacity:1;" d="M 174.296875 41.007812 C 173.71875 41.914062 173.21875 42.257812 172.453125 42.257812 C 171.765625 42.257812 171.25 41.914062 170.90625 41.226562 C 170.6875 40.773438 170.609375 40.382812 170.578125 39.648438 L 174.265625 39.648438 C 174.171875 38.867188 174.046875 38.523438 173.75 38.148438 C 173.390625 37.710938 172.84375 37.460938 172.21875 37.460938 C 171.625 37.460938 171.0625 37.679688 170.609375 38.085938 C 170.046875 38.570312 169.71875 39.429688 169.71875 40.398438 C 169.71875 42.054688 170.578125 43.085938 171.953125 43.085938 C 173.09375 43.085938 173.984375 42.382812 174.484375 41.085938 Z M 170.609375 39.273438 C 170.734375 38.335938 171.140625 37.898438 171.875 37.898438 C 172.59375 37.898438 172.890625 38.226562 173.046875 39.273438 Z M 170.609375 39.273438 "/>
<path style=" stroke:none;fill-rule:nonzero;fill:rgb(0%,0%,0%);fill-opacity:1;" d="M 174.808594 38.304688 C 174.980469 38.257812 175.089844 38.257812 175.230469 38.257812 C 175.527344 38.257812 175.636719 38.445312 175.636719 38.960938 L 175.636719 41.960938 C 175.636719 42.554688 175.558594 42.632812 174.792969 42.789062 L 174.792969 42.960938 L 177.652344 42.960938 L 177.652344 42.789062 C 176.839844 42.742188 176.636719 42.570312 176.636719 41.882812 L 176.636719 39.195312 C 176.636719 38.820312 177.152344 38.210938 177.480469 38.210938 C 177.558594 38.210938 177.652344 38.273438 177.792969 38.398438 C 177.980469 38.554688 178.105469 38.632812 178.261719 38.632812 C 178.558594 38.632812 178.730469 38.429688 178.730469 38.101562 C 178.730469 37.695312 178.480469 37.460938 178.074219 37.460938 C 177.574219 37.460938 177.230469 37.742188 176.636719 38.585938 L 176.636719 37.492188 L 176.589844 37.460938 C 175.949219 37.726562 175.511719 37.882812 174.808594 38.101562 Z M 174.808594 38.304688 "/>
<path style=" stroke:none;fill-rule:nonzero;fill:rgb(0%,0%,0%);fill-opacity:1;" d="M 181.757812 37.585938 L 180.554688 37.585938 L 180.554688 36.195312 C 180.554688 36.070312 180.539062 36.039062 180.460938 36.039062 C 180.382812 36.148438 180.320312 36.257812 180.226562 36.367188 C 179.773438 37.039062 179.257812 37.601562 179.070312 37.648438 C 178.945312 37.742188 178.867188 37.820312 178.867188 37.882812 C 178.867188 37.914062 178.882812 37.945312 178.914062 37.960938 L 179.554688 37.960938 L 179.554688 41.554688 C 179.554688 42.570312 179.898438 43.085938 180.617188 43.085938 C 181.195312 43.085938 181.648438 42.789062 182.039062 42.179688 L 181.882812 42.039062 C 181.632812 42.335938 181.429688 42.460938 181.179688 42.460938 C 180.726562 42.460938 180.554688 42.132812 180.554688 41.382812 L 180.554688 37.960938 L 181.757812 37.960938 Z M 181.757812 37.585938 "/>
<path style=" stroke:none;fill-rule:nonzero;fill:rgb(0%,0%,0%);fill-opacity:1;" d="M 186.90625 41.007812 C 186.328125 41.914062 185.828125 42.257812 185.0625 42.257812 C 184.375 42.257812 183.859375 41.914062 183.515625 41.226562 C 183.296875 40.773438 183.21875 40.382812 183.1875 39.648438 L 186.875 39.648438 C 186.78125 38.867188 186.65625 38.523438 186.359375 38.148438 C 186 37.710938 185.453125 37.460938 184.828125 37.460938 C 184.234375 37.460938 183.671875 37.679688 183.21875 38.085938 C 182.65625 38.570312 182.328125 39.429688 182.328125 40.398438 C 182.328125 42.054688 183.1875 43.085938 184.5625 43.085938 C 185.703125 43.085938 186.59375 42.382812 187.09375 41.085938 Z M 183.21875 39.273438 C 183.34375 38.335938 183.75 37.898438 184.484375 37.898438 C 185.203125 37.898438 185.5 38.226562 185.65625 39.273438 Z M 183.21875 39.273438 "/>
<path style=" stroke:none;fill-rule:nonzero;fill:rgb(0%,0%,0%);fill-opacity:1;" d="M 190.488281 42.960938 L 192.878906 42.960938 L 192.878906 42.789062 C 192.519531 42.789062 192.269531 42.585938 191.910156 42.070312 L 190.378906 39.726562 L 191.363281 38.289062 C 191.597656 37.960938 191.957031 37.773438 192.332031 37.757812 L 192.332031 37.585938 L 190.441406 37.585938 L 190.441406 37.757812 C 190.800781 37.789062 190.925781 37.851562 190.925781 38.023438 C 190.925781 38.164062 190.785156 38.429688 190.488281 38.804688 C 190.425781 38.867188 190.285156 39.085938 190.128906 39.320312 L 189.957031 39.085938 C 189.628906 38.585938 189.410156 38.179688 189.410156 38.023438 C 189.410156 37.851562 189.566406 37.773438 189.925781 37.757812 L 189.925781 37.585938 L 187.441406 37.585938 L 187.441406 37.757812 L 187.550781 37.757812 C 187.910156 37.757812 188.097656 37.914062 188.472656 38.476562 L 189.597656 40.195312 L 188.238281 42.179688 C 187.878906 42.664062 187.753906 42.742188 187.363281 42.789062 L 187.363281 42.960938 L 189.097656 42.960938 L 189.097656 42.789062 C 188.769531 42.789062 188.613281 42.726562 188.613281 42.570312 C 188.613281 42.492188 188.707031 42.320312 188.863281 42.070312 L 189.800781 40.601562 L 190.894531 42.273438 C 190.941406 42.351562 190.957031 42.429688 190.957031 42.492188 C 190.957031 42.710938 190.878906 42.757812 190.488281 42.789062 Z M 190.488281 42.960938 "/>
<path style=" stroke:none;fill-rule:nonzero;fill:rgb(0%,0%,0%);fill-opacity:1;" d="M 211.566406 38.726562 L 208.519531 38.726562 L 208.519531 38.945312 C 209.035156 38.976562 209.175781 39.023438 209.332031 39.117188 C 209.503906 39.226562 209.582031 39.492188 209.582031 40.007812 L 209.582031 41.945312 C 209.582031 42.320312 208.847656 42.648438 207.988281 42.648438 C 206.035156 42.648438 204.847656 41.289062 204.847656 39.070312 C 204.847656 37.945312 205.175781 36.851562 205.707031 36.273438 C 206.222656 35.679688 206.972656 35.351562 207.785156 35.351562 C 208.457031 35.351562 209.035156 35.585938 209.503906 36.023438 C 209.863281 36.351562 210.050781 36.679688 210.347656 37.398438 L 210.628906 37.398438 L 210.535156 34.882812 L 210.269531 34.882812 C 210.191406 35.101562 209.988281 35.273438 209.738281 35.273438 C 209.613281 35.273438 209.425781 35.242188 209.207031 35.148438 C 208.660156 34.976562 208.113281 34.882812 207.582031 34.882812 C 205.191406 34.882812 203.472656 36.632812 203.472656 39.070312 C 203.472656 40.242188 203.800781 41.148438 204.472656 41.851562 C 205.269531 42.679688 206.425781 43.132812 207.738281 43.132812 C 208.769531 43.132812 210.253906 42.710938 210.738281 42.289062 L 210.738281 39.867188 C 210.738281 39.164062 210.878906 39.007812 211.566406 38.945312 Z M 211.566406 38.726562 "/>
<path style=" stroke:none;fill-rule:nonzero;fill:rgb(0%,0%,0%);fill-opacity:1;" d="M 216.605469 41.007812 C 216.027344 41.914062 215.527344 42.257812 214.761719 42.257812 C 214.074219 42.257812 213.558594 41.914062 213.214844 41.226562 C 212.996094 40.773438 212.917969 40.382812 212.886719 39.648438 L 216.574219 39.648438 C 216.480469 38.867188 216.355469 38.523438 216.058594 38.148438 C 215.699219 37.710938 215.152344 37.460938 214.527344 37.460938 C 213.933594 37.460938 213.371094 37.679688 212.917969 38.085938 C 212.355469 38.570312 212.027344 39.429688 212.027344 40.398438 C 212.027344 42.054688 212.886719 43.085938 214.261719 43.085938 C 215.402344 43.085938 216.292969 42.382812 216.792969 41.085938 Z M 212.917969 39.273438 C 213.042969 38.335938 213.449219 37.898438 214.183594 37.898438 C 214.902344 37.898438 215.199219 38.226562 215.355469 39.273438 Z M 212.917969 39.273438 "/>
<path style=" stroke:none;fill-rule:nonzero;fill:rgb(0%,0%,0%);fill-opacity:1;" d="M 217.226562 38.210938 C 217.304688 38.164062 217.414062 38.148438 217.554688 38.148438 C 217.882812 38.148438 217.992188 38.335938 217.992188 38.914062 L 217.992188 41.882812 C 217.992188 42.570312 217.867188 42.726562 217.257812 42.789062 L 217.257812 42.960938 L 219.789062 42.960938 L 219.789062 42.789062 C 219.179688 42.726562 218.992188 42.585938 218.992188 42.164062 L 218.992188 38.804688 C 219.570312 38.257812 219.835938 38.117188 220.226562 38.117188 C 220.820312 38.117188 221.101562 38.492188 221.101562 39.273438 L 221.101562 41.773438 C 221.101562 42.523438 220.945312 42.726562 220.351562 42.789062 L 220.351562 42.960938 L 222.835938 42.960938 L 222.835938 42.789062 C 222.257812 42.726562 222.101562 42.585938 222.101562 41.992188 L 222.101562 39.257812 C 222.101562 38.132812 221.585938 37.460938 220.695312 37.460938 C 220.148438 37.460938 219.773438 37.664062 218.960938 38.429688 L 218.960938 37.492188 L 218.882812 37.460938 C 218.289062 37.679688 217.882812 37.804688 217.226562 38.007812 Z M 217.226562 38.210938 "/>
<path style=" stroke:none;fill-rule:nonzero;fill:rgb(0%,0%,0%);fill-opacity:1;" d="M 227.890625 41.007812 C 227.3125 41.914062 226.8125 42.257812 226.046875 42.257812 C 225.359375 42.257812 224.84375 41.914062 224.5 41.226562 C 224.28125 40.773438 224.203125 40.382812 224.171875 39.648438 L 227.859375 39.648438 C 227.765625 38.867188 227.640625 38.523438 227.34375 38.148438 C 226.984375 37.710938 226.4375 37.460938 225.8125 37.460938 C 225.21875 37.460938 224.65625 37.679688 224.203125 38.085938 C 223.640625 38.570312 223.3125 39.429688 223.3125 40.398438 C 223.3125 42.054688 224.171875 43.085938 225.546875 43.085938 C 226.6875 43.085938 227.578125 42.382812 228.078125 41.085938 Z M 224.203125 39.273438 C 224.328125 38.335938 224.734375 37.898438 225.46875 37.898438 C 226.1875 37.898438 226.484375 38.226562 226.640625 39.273438 Z M 224.203125 39.273438 "/>
<path style=" stroke:none;fill-rule:nonzero;fill:rgb(0%,0%,0%);fill-opacity:1;" d="M 228.402344 38.304688 C 228.574219 38.257812 228.683594 38.257812 228.824219 38.257812 C 229.121094 38.257812 229.230469 38.445312 229.230469 38.960938 L 229.230469 41.960938 C 229.230469 42.554688 229.152344 42.632812 228.386719 42.789062 L 228.386719 42.960938 L 231.246094 42.960938 L 231.246094 42.789062 C 230.433594 42.742188 230.230469 42.570312 230.230469 41.882812 L 230.230469 39.195312 C 230.230469 38.820312 230.746094 38.210938 231.074219 38.210938 C 231.152344 38.210938 231.246094 38.273438 231.386719 38.398438 C 231.574219 38.554688 231.699219 38.632812 231.855469 38.632812 C 232.152344 38.632812 232.324219 38.429688 232.324219 38.101562 C 232.324219 37.695312 232.074219 37.460938 231.667969 37.460938 C 231.167969 37.460938 230.824219 37.742188 230.230469 38.585938 L 230.230469 37.492188 L 230.183594 37.460938 C 229.542969 37.726562 229.105469 37.882812 228.402344 38.101562 Z M 228.402344 38.304688 "/>
<path style=" stroke:none;fill-rule:nonzero;fill:rgb(0%,0%,0%);fill-opacity:1;" d="M 237.585938 42.179688 C 237.382812 42.335938 237.242188 42.398438 237.054688 42.398438 C 236.789062 42.398438 236.710938 42.226562 236.710938 41.710938 L 236.710938 39.382812 C 236.710938 38.757812 236.648438 38.414062 236.460938 38.117188 C 236.195312 37.695312 235.679688 37.460938 234.976562 37.460938 C 233.851562 37.460938 232.976562 38.054688 232.976562 38.804688 C 232.976562 39.070312 233.210938 39.320312 233.492188 39.320312 C 233.773438 39.320312 234.023438 39.070312 234.023438 38.820312 C 234.023438 38.757812 234.007812 38.710938 234.007812 38.617188 C 233.976562 38.507812 233.960938 38.414062 233.960938 38.335938 C 233.960938 38.007812 234.351562 37.742188 234.820312 37.742188 C 235.414062 37.742188 235.742188 38.101562 235.742188 38.742188 L 235.742188 39.476562 C 233.898438 40.210938 233.695312 40.304688 233.179688 40.757812 C 232.914062 41.007812 232.742188 41.414062 232.742188 41.804688 C 232.742188 42.554688 233.273438 43.085938 234.007812 43.085938 C 234.523438 43.085938 235.023438 42.835938 235.742188 42.210938 C 235.804688 42.835938 236.023438 43.085938 236.507812 43.085938 C 236.914062 43.085938 237.164062 42.929688 237.585938 42.476562 Z M 235.742188 41.492188 C 235.742188 41.867188 235.679688 41.976562 235.429688 42.117188 C 235.132812 42.273438 234.804688 42.382812 234.554688 42.382812 C 234.132812 42.382812 233.804688 41.976562 233.804688 41.460938 L 233.804688 41.414062 C 233.804688 40.710938 234.289062 40.289062 235.742188 39.757812 Z M 235.742188 41.492188 "/>
<path style=" stroke:none;fill-rule:nonzero;fill:rgb(0%,0%,0%);fill-opacity:1;" d="M 240.660156 37.585938 L 239.457031 37.585938 L 239.457031 36.195312 C 239.457031 36.070312 239.441406 36.039062 239.363281 36.039062 C 239.285156 36.148438 239.222656 36.257812 239.128906 36.367188 C 238.675781 37.039062 238.160156 37.601562 237.972656 37.648438 C 237.847656 37.742188 237.769531 37.820312 237.769531 37.882812 C 237.769531 37.914062 237.785156 37.945312 237.816406 37.960938 L 238.457031 37.960938 L 238.457031 41.554688 C 238.457031 42.570312 238.800781 43.085938 239.519531 43.085938 C 240.097656 43.085938 240.550781 42.789062 240.941406 42.179688 L 240.785156 42.039062 C 240.535156 42.335938 240.332031 42.460938 240.082031 42.460938 C 239.628906 42.460938 239.457031 42.132812 239.457031 41.382812 L 239.457031 37.960938 L 240.660156 37.960938 Z M 240.660156 37.585938 "/>
<path style=" stroke:none;fill-rule:nonzero;fill:rgb(0%,0%,0%);fill-opacity:1;" d="M 243.921875 37.460938 C 242.375 37.460938 241.28125 38.617188 241.28125 40.257812 C 241.28125 41.867188 242.390625 43.085938 243.90625 43.085938 C 245.40625 43.085938 246.5625 41.820312 246.5625 40.164062 C 246.5625 38.601562 245.453125 37.460938 243.921875 37.460938 Z M 243.765625 37.804688 C 244.78125 37.804688 245.484375 38.945312 245.484375 40.585938 C 245.484375 41.929688 244.9375 42.742188 244.046875 42.742188 C 243.578125 42.742188 243.140625 42.460938 242.890625 41.976562 C 242.546875 41.351562 242.359375 40.523438 242.359375 39.679688 C 242.359375 38.539062 242.921875 37.804688 243.765625 37.804688 Z M 243.765625 37.804688 "/>
<path style=" stroke:none;fill-rule:nonzero;fill:rgb(0%,0%,0%);fill-opacity:1;" d="M 246.992188 38.304688 C 247.164062 38.257812 247.273438 38.257812 247.414062 38.257812 C 247.710938 38.257812 247.820312 38.445312 247.820312 38.960938 L 247.820312 41.960938 C 247.820312 42.554688 247.742188 42.632812 246.976562 42.789062 L 246.976562 42.960938 L 249.835938 42.960938 L 249.835938 42.789062 C 249.023438 42.742188 248.820312 42.570312 248.820312 41.882812 L 248.820312 39.195312 C 248.820312 38.820312 249.335938 38.210938 249.664062 38.210938 C 249.742188 38.210938 249.835938 38.273438 249.976562 38.398438 C 250.164062 38.554688 250.289062 38.632812 250.445312 38.632812 C 250.742188 38.632812 250.914062 38.429688 250.914062 38.101562 C 250.914062 37.695312 250.664062 37.460938 250.257812 37.460938 C 249.757812 37.460938 249.414062 37.742188 248.820312 38.585938 L 248.820312 37.492188 L 248.773438 37.460938 C 248.132812 37.726562 247.695312 37.882812 246.992188 38.101562 Z M 246.992188 38.304688 "/>
<path style=" stroke:none;fill-rule:nonzero;fill:rgb(0%,0%,0%);fill-opacity:1;" d="M 256.867188 37.460938 C 255.320312 37.460938 254.226562 38.617188 254.226562 40.257812 C 254.226562 41.867188 255.335938 43.085938 256.851562 43.085938 C 258.351562 43.085938 259.507812 41.820312 259.507812 40.164062 C 259.507812 38.601562 258.398438 37.460938 256.867188 37.460938 Z M 256.710938 37.804688 C 257.726562 37.804688 258.429688 38.945312 258.429688 40.585938 C 258.429688 41.929688 257.882812 42.742188 256.992188 42.742188 C 256.523438 42.742188 256.085938 42.460938 255.835938 41.976562 C 255.492188 41.351562 255.304688 40.523438 255.304688 39.679688 C 255.304688 38.539062 255.867188 37.804688 256.710938 37.804688 Z M 256.710938 37.804688 "/>
<path style=" stroke:none;fill-rule:nonzero;fill:rgb(0%,0%,0%);fill-opacity:1;" d="M 263.550781 37.585938 L 262.082031 37.585938 L 262.082031 36.195312 C 262.082031 35.507812 262.316406 35.132812 262.769531 35.132812 C 263.019531 35.132812 263.191406 35.257812 263.394531 35.601562 C 263.597656 35.914062 263.738281 36.023438 263.941406 36.023438 C 264.207031 36.023438 264.441406 35.820312 264.441406 35.539062 C 264.441406 35.101562 263.910156 34.804688 263.191406 34.804688 C 262.457031 34.804688 261.816406 35.117188 261.519531 35.664062 C 261.207031 36.195312 261.113281 36.632812 261.097656 37.585938 L 260.113281 37.585938 L 260.113281 37.960938 L 261.097656 37.960938 L 261.097656 41.710938 C 261.097656 42.585938 260.957031 42.726562 260.097656 42.789062 L 260.097656 42.960938 L 263.207031 42.960938 L 263.207031 42.789062 C 262.222656 42.742188 262.097656 42.617188 262.097656 41.710938 L 262.097656 37.960938 L 263.550781 37.960938 Z M 263.550781 37.585938 "/>
<path style=" stroke:none;fill-rule:nonzero;fill:rgb(0%,0%,0%);fill-opacity:1;" d="M 269.257812 39.476562 C 269.554688 39.507812 269.757812 39.523438 270.070312 39.523438 C 271.007812 39.523438 271.648438 39.398438 272.164062 39.117188 C 272.882812 38.726562 273.320312 38.007812 273.320312 37.210938 C 273.320312 36.710938 273.148438 36.257812 272.820312 35.914062 C 272.351562 35.382812 271.304688 35.054688 270.179688 35.054688 L 267.023438 35.054688 L 267.023438 35.273438 C 267.914062 35.367188 268.023438 35.492188 268.023438 36.351562 L 268.023438 41.523438 C 268.023438 42.523438 267.929688 42.648438 267.023438 42.726562 L 267.023438 42.960938 L 270.367188 42.960938 L 270.367188 42.726562 C 269.429688 42.695312 269.257812 42.523438 269.257812 41.664062 Z M 269.257812 35.898438 C 269.257812 35.570312 269.335938 35.492188 269.664062 35.492188 C 271.273438 35.492188 272.007812 36.054688 272.007812 37.289062 C 272.007812 38.445312 271.304688 39.039062 269.929688 39.039062 C 269.695312 39.039062 269.523438 39.023438 269.257812 39.007812 Z M 269.257812 35.898438 "/>
<path style=" stroke:none;fill-rule:nonzero;fill:rgb(0%,0%,0%);fill-opacity:1;" d="M 274.019531 41.890625 C 274.550781 41.890625 274.753906 41.90625 274.972656 41.984375 C 275.519531 42.1875 275.878906 42.6875 275.878906 43.3125 C 275.878906 44.0625 275.363281 44.640625 274.691406 44.640625 C 274.457031 44.640625 274.269531 44.578125 273.941406 44.375 C 273.675781 44.203125 273.519531 44.140625 273.363281 44.140625 C 273.160156 44.140625 273.035156 44.265625 273.035156 44.453125 C 273.035156 44.765625 273.410156 44.96875 274.050781 44.96875 C 274.738281 44.96875 275.441406 44.734375 275.863281 44.375 C 276.285156 44 276.519531 43.484375 276.519531 42.875 C 276.519531 42.421875 276.378906 42 276.113281 41.71875 C 275.941406 41.53125 275.769531 41.421875 275.363281 41.25 C 275.988281 40.828125 276.207031 40.5 276.207031 40.015625 C 276.207031 39.28125 275.644531 38.78125 274.816406 38.78125 C 274.363281 38.78125 273.972656 38.9375 273.644531 39.21875 C 273.378906 39.46875 273.238281 39.703125 273.050781 40.234375 L 273.175781 40.265625 C 273.550781 39.609375 273.957031 39.3125 274.519531 39.3125 C 275.097656 39.3125 275.503906 39.71875 275.503906 40.28125 C 275.503906 40.59375 275.363281 40.921875 275.144531 41.15625 C 274.878906 41.421875 274.628906 41.546875 274.019531 41.765625 Z M 274.019531 41.890625 "/>
<g clip-path="url(#clip3)" clip-rule="nonzero">
<path style="fill:none;stroke-width:0.585;stroke-linecap:butt;stroke-linejoin:miter;stroke:rgb(0%,0%,0%);stroke-opacity:1;stroke-miterlimit:10;" d="M 157.136719 -49.496094 L 282.609375 -49.496094 " transform="matrix(1,0,0,-1,0,0)"/>
</g>
<path style=" stroke:none;fill-rule:nonzero;fill:rgb(0%,0%,0%);fill-opacity:1;" d="M 166.382812 60.753906 C 167.070312 61.613281 167.914062 62.097656 168.664062 62.097656 C 169.664062 62.097656 170.335938 61.363281 170.335938 60.300781 C 170.335938 59.238281 169.632812 58.519531 168.601562 58.519531 C 167.804688 58.519531 167.039062 58.988281 166.382812 59.847656 C 165.695312 58.988281 164.914062 58.519531 164.164062 58.519531 C 163.164062 58.519531 162.429688 59.269531 162.429688 60.332031 C 162.429688 61.363281 163.117188 62.097656 164.117188 62.097656 C 164.789062 62.097656 165.476562 61.769531 166.023438 61.175781 Z M 166.789062 60.316406 C 167.304688 59.597656 168.007812 59.144531 168.648438 59.144531 C 169.289062 59.144531 169.742188 59.628906 169.742188 60.316406 C 169.742188 61.019531 169.320312 61.472656 168.679688 61.472656 C 168.039062 61.472656 167.632812 61.207031 166.789062 60.316406 Z M 165.992188 60.300781 C 165.414062 61.035156 164.679688 61.472656 164.070312 61.472656 C 163.445312 61.472656 163.023438 60.988281 163.023438 60.300781 C 163.023438 59.613281 163.460938 59.144531 164.117188 59.144531 C 164.679688 59.144531 165.226562 59.457031 165.914062 60.191406 C 165.960938 60.238281 165.960938 60.238281 165.992188 60.300781 Z M 165.992188 60.300781 "/>
<path style=" stroke:none;fill-rule:nonzero;fill:rgb(0%,0%,0%);fill-opacity:1;" d="M 208.382812 62.691406 C 208.179688 62.847656 208.039062 62.910156 207.851562 62.910156 C 207.585938 62.910156 207.507812 62.738281 207.507812 62.222656 L 207.507812 59.894531 C 207.507812 59.269531 207.445312 58.925781 207.257812 58.628906 C 206.992188 58.207031 206.476562 57.972656 205.773438 57.972656 C 204.648438 57.972656 203.773438 58.566406 203.773438 59.316406 C 203.773438 59.582031 204.007812 59.832031 204.289062 59.832031 C 204.570312 59.832031 204.820312 59.582031 204.820312 59.332031 C 204.820312 59.269531 204.804688 59.222656 204.804688 59.128906 C 204.773438 59.019531 204.757812 58.925781 204.757812 58.847656 C 204.757812 58.519531 205.148438 58.253906 205.617188 58.253906 C 206.210938 58.253906 206.539062 58.613281 206.539062 59.253906 L 206.539062 59.988281 C 204.695312 60.722656 204.492188 60.816406 203.976562 61.269531 C 203.710938 61.519531 203.539062 61.925781 203.539062 62.316406 C 203.539062 63.066406 204.070312 63.597656 204.804688 63.597656 C 205.320312 63.597656 205.820312 63.347656 206.539062 62.722656 C 206.601562 63.347656 206.820312 63.597656 207.304688 63.597656 C 207.710938 63.597656 207.960938 63.441406 208.382812 62.988281 Z M 206.539062 62.003906 C 206.539062 62.378906 206.476562 62.488281 206.226562 62.628906 C 205.929688 62.785156 205.601562 62.894531 205.351562 62.894531 C 204.929688 62.894531 204.601562 62.488281 204.601562 61.972656 L 204.601562 61.925781 C 204.601562 61.222656 205.085938 60.800781 206.539062 60.269531 Z M 206.539062 62.003906 "/>
<path style=" stroke:none;fill-rule:nonzero;fill:rgb(0%,0%,0%);fill-opacity:1;" d="M 210.453125 56.179688 C 210.984375 56.179688 211.1875 56.195312 211.40625 56.273438 C 211.953125 56.476562 212.3125 56.976562 212.3125 57.601562 C 212.3125 58.351562 211.796875 58.929688 211.125 58.929688 C 210.890625 58.929688 210.703125 58.867188 210.375 58.664062 C 210.109375 58.492188 209.953125 58.429688 209.796875 58.429688 C 209.59375 58.429688 209.46875 58.554688 209.46875 58.742188 C 209.46875 59.054688 209.84375 59.257812 210.484375 59.257812 C 211.171875 59.257812 211.875 59.023438 212.296875 58.664062 C 212.71875 58.289062 212.953125 57.773438 212.953125 57.164062 C 212.953125 56.710938 212.8125 56.289062 212.546875 56.007812 C 212.375 55.820312 212.203125 55.710938 211.796875 55.539062 C 212.421875 55.117188 212.640625 54.789062 212.640625 54.304688 C 212.640625 53.570312 212.078125 53.070312 211.25 53.070312 C 210.796875 53.070312 210.40625 53.226562 210.078125 53.507812 C 209.8125 53.757812 209.671875 53.992188 209.484375 54.523438 L 209.609375 54.554688 C 209.984375 53.898438 210.390625 53.601562 210.953125 53.601562 C 211.53125 53.601562 211.9375 54.007812 211.9375 54.570312 C 211.9375 54.882812 211.796875 55.210938 211.578125 55.445312 C 211.3125 55.710938 211.0625 55.835938 210.453125 56.054688 Z M 210.453125 56.179688 "/>
<path style=" stroke:none;fill-rule:nonzero;fill:rgb(0%,0%,0%);fill-opacity:1;" d="M 165.148438 69.914062 C 164.492188 69.914062 163.992188 70.117188 163.554688 70.539062 C 162.851562 71.195312 162.398438 72.570312 162.398438 73.976562 C 162.398438 75.273438 162.804688 76.679688 163.367188 77.351562 C 163.804688 77.867188 164.414062 78.164062 165.101562 78.164062 C 165.710938 78.164062 166.226562 77.960938 166.664062 77.539062 C 167.351562 76.882812 167.804688 75.492188 167.804688 74.054688 C 167.804688 71.601562 166.726562 69.914062 165.148438 69.914062 Z M 165.117188 70.226562 C 166.117188 70.226562 166.664062 71.570312 166.664062 74.070312 C 166.664062 76.570312 166.132812 77.851562 165.101562 77.851562 C 164.070312 77.851562 163.554688 76.570312 163.554688 74.085938 C 163.554688 71.554688 164.085938 70.226562 165.117188 70.226562 Z M 165.117188 70.226562 "/>
<path style=" stroke:none;fill-rule:nonzero;fill:rgb(0%,0%,0%);fill-opacity:1;" d="M 204.929688 69.851562 L 204.867188 69.835938 C 204.367188 70.007812 204.039062 70.101562 203.476562 70.257812 L 203.132812 70.351562 L 203.132812 70.539062 C 203.210938 70.539062 203.257812 70.539062 203.335938 70.539062 C 203.820312 70.539062 203.929688 70.648438 203.929688 71.148438 L 203.929688 77.351562 C 203.929688 77.710938 204.945312 78.117188 205.898438 78.117188 C 207.476562 78.117188 208.695312 76.804688 208.695312 75.085938 C 208.695312 73.617188 207.789062 72.492188 206.585938 72.492188 C 205.867188 72.492188 205.164062 72.929688 204.929688 73.507812 Z M 204.929688 74.148438 C 204.929688 73.679688 205.492188 73.242188 206.117188 73.242188 C 207.039062 73.242188 207.648438 74.179688 207.648438 75.632812 C 207.648438 76.960938 207.070312 77.726562 206.085938 77.726562 C 205.460938 77.726562 204.929688 77.460938 204.929688 77.148438 Z M 204.929688 74.148438 "/>
<path style=" stroke:none;fill-rule:nonzero;fill:rgb(0%,0%,0%);fill-opacity:1;" d="M 210.453125 70.699219 C 210.984375 70.699219 211.1875 70.714844 211.40625 70.792969 C 211.953125 70.996094 212.3125 71.496094 212.3125 72.121094 C 212.3125 72.871094 211.796875 73.449219 211.125 73.449219 C 210.890625 73.449219 210.703125 73.386719 210.375 73.183594 C 210.109375 73.011719 209.953125 72.949219 209.796875 72.949219 C 209.59375 72.949219 209.46875 73.074219 209.46875 73.261719 C 209.46875 73.574219 209.84375 73.777344 210.484375 73.777344 C 211.171875 73.777344 211.875 73.542969 212.296875 73.183594 C 212.71875 72.808594 212.953125 72.292969 212.953125 71.683594 C 212.953125 71.230469 212.8125 70.808594 212.546875 70.527344 C 212.375 70.339844 212.203125 70.230469 211.796875 70.058594 C 212.421875 69.636719 212.640625 69.308594 212.640625 68.824219 C 212.640625 68.089844 212.078125 67.589844 211.25 67.589844 C 210.796875 67.589844 210.40625 67.746094 210.078125 68.027344 C 209.8125 68.277344 209.671875 68.511719 209.484375 69.042969 L 209.609375 69.074219 C 209.984375 68.417969 210.390625 68.121094 210.953125 68.121094 C 211.53125 68.121094 211.9375 68.527344 211.9375 69.089844 C 211.9375 69.402344 211.796875 69.730469 211.578125 69.964844 C 211.3125 70.230469 211.0625 70.355469 210.453125 70.574219 Z M 210.453125 70.699219 "/>
<path style=" stroke:none;fill-rule:nonzero;fill:rgb(0%,0%,0%);fill-opacity:1;" d="M 165.601562 84.4375 L 163.445312 85.515625 L 163.445312 85.6875 C 163.585938 85.625 163.726562 85.578125 163.773438 85.5625 C 163.976562 85.46875 164.179688 85.421875 164.304688 85.421875 C 164.554688 85.421875 164.664062 85.609375 164.664062 85.984375 L 164.664062 91.40625 C 164.664062 91.796875 164.570312 92.078125 164.382812 92.1875 C 164.195312 92.28125 164.023438 92.328125 163.523438 92.34375 L 163.523438 92.515625 L 166.820312 92.515625 L 166.820312 92.34375 C 165.882812 92.328125 165.695312 92.203125 165.695312 91.625 L 165.695312 84.453125 Z M 165.601562 84.4375 "/>
<path style=" stroke:none;fill-rule:nonzero;fill:rgb(0%,0%,0%);fill-opacity:1;" d="M 206.804688 95.484375 C 206.367188 95.128906 205.984375 94.722656 205.664062 94.265625 C 205.339844 93.816406 205.074219 93.332031 204.867188 92.8125 C 204.667969 92.304688 204.515625 91.773438 204.414062 91.21875 C 204.308594 90.65625 204.257812 90.09375 204.257812 89.53125 C 204.257812 88.960938 204.308594 88.390625 204.414062 87.828125 C 204.515625 87.265625 204.671875 86.730469 204.882812 86.21875 C 205.089844 85.699219 205.355469 85.214844 205.679688 84.765625 C 206 84.308594 206.375 83.914062 206.804688 83.578125 C 206.804688 83.558594 206.824219 83.546875 206.867188 83.546875 L 206.976562 83.546875 C 206.996094 83.546875 207.015625 83.558594 207.039062 83.578125 C 207.058594 83.601562 207.070312 83.625 207.070312 83.65625 C 207.070312 83.6875 207.0625 83.714844 207.054688 83.734375 C 206.65625 84.109375 206.328125 84.515625 206.070312 84.953125 C 205.808594 85.390625 205.601562 85.859375 205.445312 86.359375 C 205.289062 86.851562 205.171875 87.359375 205.101562 87.890625 C 205.039062 88.414062 205.007812 88.960938 205.007812 89.53125 C 205.007812 92.0625 205.683594 93.984375 207.039062 95.296875 C 207.058594 95.316406 207.070312 95.351562 207.070312 95.40625 C 207.070312 95.414062 207.058594 95.429688 207.039062 95.453125 C 207.015625 95.484375 206.996094 95.5 206.976562 95.5 L 206.867188 95.5 C 206.824219 95.5 206.804688 95.492188 206.804688 95.484375 Z M 206.804688 95.484375 "/>
<path style=" stroke:none;fill-rule:nonzero;fill:rgb(0%,0%,0%);fill-opacity:1;" d="M 213.023438 91.734375 C 212.820312 91.890625 212.679688 91.953125 212.492188 91.953125 C 212.226562 91.953125 212.148438 91.78125 212.148438 91.265625 L 212.148438 88.9375 C 212.148438 88.3125 212.085938 87.96875 211.898438 87.671875 C 211.632812 87.25 211.117188 87.015625 210.414062 87.015625 C 209.289062 87.015625 208.414062 87.609375 208.414062 88.359375 C 208.414062 88.625 208.648438 88.875 208.929688 88.875 C 209.210938 88.875 209.460938 88.625 209.460938 88.375 C 209.460938 88.3125 209.445312 88.265625 209.445312 88.171875 C 209.414062 88.0625 209.398438 87.96875 209.398438 87.890625 C 209.398438 87.5625 209.789062 87.296875 210.257812 87.296875 C 210.851562 87.296875 211.179688 87.65625 211.179688 88.296875 L 211.179688 89.03125 C 209.335938 89.765625 209.132812 89.859375 208.617188 90.3125 C 208.351562 90.5625 208.179688 90.96875 208.179688 91.359375 C 208.179688 92.109375 208.710938 92.640625 209.445312 92.640625 C 209.960938 92.640625 210.460938 92.390625 211.179688 91.765625 C 211.242188 92.390625 211.460938 92.640625 211.945312 92.640625 C 212.351562 92.640625 212.601562 92.484375 213.023438 92.03125 Z M 211.179688 91.046875 C 211.179688 91.421875 211.117188 91.53125 210.867188 91.671875 C 210.570312 91.828125 210.242188 91.9375 209.992188 91.9375 C 209.570312 91.9375 209.242188 91.53125 209.242188 91.015625 L 209.242188 90.96875 C 209.242188 90.265625 209.726562 89.84375 211.179688 89.3125 Z M 211.179688 91.046875 "/>
<path style=" stroke:none;fill-rule:nonzero;fill:rgb(0%,0%,0%);fill-opacity:1;" d="M 215.546875 84.375 L 215.484375 84.359375 C 214.984375 84.53125 214.65625 84.625 214.09375 84.78125 L 213.75 84.875 L 213.75 85.0625 C 213.828125 85.0625 213.875 85.0625 213.953125 85.0625 C 214.4375 85.0625 214.546875 85.171875 214.546875 85.671875 L 214.546875 91.875 C 214.546875 92.234375 215.5625 92.640625 216.515625 92.640625 C 218.09375 92.640625 219.3125 91.328125 219.3125 89.609375 C 219.3125 88.140625 218.40625 87.015625 217.203125 87.015625 C 216.484375 87.015625 215.78125 87.453125 215.546875 88.03125 Z M 215.546875 88.671875 C 215.546875 88.203125 216.109375 87.765625 216.734375 87.765625 C 217.65625 87.765625 218.265625 88.703125 218.265625 90.15625 C 218.265625 91.484375 217.6875 92.25 216.703125 92.25 C 216.078125 92.25 215.546875 91.984375 215.546875 91.671875 Z M 215.546875 88.671875 "/>
<path style=" stroke:none;fill-rule:nonzero;fill:rgb(0%,0%,0%);fill-opacity:1;" d="M 220.476562 95.5 C 220.402344 95.5 220.367188 95.46875 220.367188 95.40625 C 220.367188 95.363281 220.371094 95.335938 220.382812 95.328125 C 221.746094 93.992188 222.429688 92.0625 222.429688 89.53125 C 222.429688 87 221.757812 85.074219 220.414062 83.75 C 220.382812 83.730469 220.367188 83.699219 220.367188 83.65625 C 220.367188 83.625 220.375 83.601562 220.398438 83.578125 C 220.417969 83.558594 220.445312 83.546875 220.476562 83.546875 L 220.585938 83.546875 C 220.605469 83.546875 220.625 83.558594 220.648438 83.578125 C 221.210938 84.027344 221.683594 84.574219 222.070312 85.21875 C 222.453125 85.867188 222.734375 86.558594 222.914062 87.296875 C 223.089844 88.027344 223.179688 88.773438 223.179688 89.53125 C 223.179688 90.09375 223.125 90.652344 223.023438 91.203125 C 222.929688 91.746094 222.777344 92.28125 222.570312 92.8125 C 222.359375 93.34375 222.09375 93.832031 221.773438 94.28125 C 221.460938 94.726562 221.085938 95.128906 220.648438 95.484375 C 220.625 95.492188 220.605469 95.5 220.585938 95.5 Z M 220.476562 95.5 "/>
<path style=" stroke:none;fill-rule:nonzero;fill:rgb(0%,0%,0%);fill-opacity:1;" d="M 225.710938 85.222656 C 226.242188 85.222656 226.445312 85.238281 226.664062 85.316406 C 227.210938 85.519531 227.570312 86.019531 227.570312 86.644531 C 227.570312 87.394531 227.054688 87.972656 226.382812 87.972656 C 226.148438 87.972656 225.960938 87.910156 225.632812 87.707031 C 225.367188 87.535156 225.210938 87.472656 225.054688 87.472656 C 224.851562 87.472656 224.726562 87.597656 224.726562 87.785156 C 224.726562 88.097656 225.101562 88.300781 225.742188 88.300781 C 226.429688 88.300781 227.132812 88.066406 227.554688 87.707031 C 227.976562 87.332031 228.210938 86.816406 228.210938 86.207031 C 228.210938 85.753906 228.070312 85.332031 227.804688 85.050781 C 227.632812 84.863281 227.460938 84.753906 227.054688 84.582031 C 227.679688 84.160156 227.898438 83.832031 227.898438 83.347656 C 227.898438 82.613281 227.335938 82.113281 226.507812 82.113281 C 226.054688 82.113281 225.664062 82.269531 225.335938 82.550781 C 225.070312 82.800781 224.929688 83.035156 224.742188 83.566406 L 224.867188 83.597656 C 225.242188 82.941406 225.648438 82.644531 226.210938 82.644531 C 226.789062 82.644531 227.195312 83.050781 227.195312 83.613281 C 227.195312 83.925781 227.054688 84.253906 226.835938 84.488281 C 226.570312 84.753906 226.320312 84.878906 225.710938 85.097656 Z M 225.710938 85.222656 "/>
<path style=" stroke:none;fill-rule:nonzero;fill:rgb(0%,0%,0%);fill-opacity:1;" d="M 163.382812 102.789062 L 170.867188 102.789062 L 170.867188 103.789062 L 163.382812 103.789062 Z M 163.382812 102.789062 "/>
<path style=" stroke:none;fill-rule:nonzero;fill:rgb(0%,0%,0%);fill-opacity:1;" d="M 174.890625 98.960938 L 172.734375 100.039062 L 172.734375 100.210938 C 172.875 100.148438 173.015625 100.101562 173.0625 100.085938 C 173.265625 99.992188 173.46875 99.945312 173.59375 99.945312 C 173.84375 99.945312 173.953125 100.132812 173.953125 100.507812 L 173.953125 105.929688 C 173.953125 106.320312 173.859375 106.601562 173.671875 106.710938 C 173.484375 106.804688 173.3125 106.851562 172.8125 106.867188 L 172.8125 107.039062 L 176.109375 107.039062 L 176.109375 106.867188 C 175.171875 106.851562 174.984375 106.726562 174.984375 106.148438 L 174.984375 98.976562 Z M 174.890625 98.960938 "/>
<path style=" stroke:none;fill-rule:nonzero;fill:rgb(0%,0%,0%);fill-opacity:1;" d="M 206.804688 110.007812 C 206.367188 109.652344 205.984375 109.246094 205.664062 108.789062 C 205.339844 108.339844 205.074219 107.855469 204.867188 107.335938 C 204.667969 106.828125 204.515625 106.296875 204.414062 105.742188 C 204.308594 105.179688 204.257812 104.617188 204.257812 104.054688 C 204.257812 103.484375 204.308594 102.914062 204.414062 102.351562 C 204.515625 101.789062 204.671875 101.253906 204.882812 100.742188 C 205.089844 100.222656 205.355469 99.738281 205.679688 99.289062 C 206 98.832031 206.375 98.4375 206.804688 98.101562 C 206.804688 98.082031 206.824219 98.070312 206.867188 98.070312 L 206.976562 98.070312 C 206.996094 98.070312 207.015625 98.082031 207.039062 98.101562 C 207.058594 98.125 207.070312 98.148438 207.070312 98.179688 C 207.070312 98.210938 207.0625 98.238281 207.054688 98.257812 C 206.65625 98.632812 206.328125 99.039062 206.070312 99.476562 C 205.808594 99.914062 205.601562 100.382812 205.445312 100.882812 C 205.289062 101.375 205.171875 101.882812 205.101562 102.414062 C 205.039062 102.9375 205.007812 103.484375 205.007812 104.054688 C 205.007812 106.585938 205.683594 108.507812 207.039062 109.820312 C 207.058594 109.839844 207.070312 109.875 207.070312 109.929688 C 207.070312 109.9375 207.058594 109.953125 207.039062 109.976562 C 207.015625 110.007812 206.996094 110.023438 206.976562 110.023438 L 206.867188 110.023438 C 206.824219 110.023438 206.804688 110.015625 206.804688 110.007812 Z M 206.804688 110.007812 "/>
<path style=" stroke:none;fill-rule:nonzero;fill:rgb(0%,0%,0%);fill-opacity:1;" d="M 213.023438 106.257812 C 212.820312 106.414062 212.679688 106.476562 212.492188 106.476562 C 212.226562 106.476562 212.148438 106.304688 212.148438 105.789062 L 212.148438 103.460938 C 212.148438 102.835938 212.085938 102.492188 211.898438 102.195312 C 211.632812 101.773438 211.117188 101.539062 210.414062 101.539062 C 209.289062 101.539062 208.414062 102.132812 208.414062 102.882812 C 208.414062 103.148438 208.648438 103.398438 208.929688 103.398438 C 209.210938 103.398438 209.460938 103.148438 209.460938 102.898438 C 209.460938 102.835938 209.445312 102.789062 209.445312 102.695312 C 209.414062 102.585938 209.398438 102.492188 209.398438 102.414062 C 209.398438 102.085938 209.789062 101.820312 210.257812 101.820312 C 210.851562 101.820312 211.179688 102.179688 211.179688 102.820312 L 211.179688 103.554688 C 209.335938 104.289062 209.132812 104.382812 208.617188 104.835938 C 208.351562 105.085938 208.179688 105.492188 208.179688 105.882812 C 208.179688 106.632812 208.710938 107.164062 209.445312 107.164062 C 209.960938 107.164062 210.460938 106.914062 211.179688 106.289062 C 211.242188 106.914062 211.460938 107.164062 211.945312 107.164062 C 212.351562 107.164062 212.601562 107.007812 213.023438 106.554688 Z M 211.179688 105.570312 C 211.179688 105.945312 211.117188 106.054688 210.867188 106.195312 C 210.570312 106.351562 210.242188 106.460938 209.992188 106.460938 C 209.570312 106.460938 209.242188 106.054688 209.242188 105.539062 L 209.242188 105.492188 C 209.242188 104.789062 209.726562 104.367188 211.179688 103.835938 Z M 211.179688 105.570312 "/>
<path style=" stroke:none;fill-rule:nonzero;fill:rgb(0%,0%,0%);fill-opacity:1;" d="M 215.546875 98.898438 L 215.484375 98.882812 C 214.984375 99.054688 214.65625 99.148438 214.09375 99.304688 L 213.75 99.398438 L 213.75 99.585938 C 213.828125 99.585938 213.875 99.585938 213.953125 99.585938 C 214.4375 99.585938 214.546875 99.695312 214.546875 100.195312 L 214.546875 106.398438 C 214.546875 106.757812 215.5625 107.164062 216.515625 107.164062 C 218.09375 107.164062 219.3125 105.851562 219.3125 104.132812 C 219.3125 102.664062 218.40625 101.539062 217.203125 101.539062 C 216.484375 101.539062 215.78125 101.976562 215.546875 102.554688 Z M 215.546875 103.195312 C 215.546875 102.726562 216.109375 102.289062 216.734375 102.289062 C 217.65625 102.289062 218.265625 103.226562 218.265625 104.679688 C 218.265625 106.007812 217.6875 106.773438 216.703125 106.773438 C 216.078125 106.773438 215.546875 106.507812 215.546875 106.195312 Z M 215.546875 103.195312 "/>
<path style=" stroke:none;fill-rule:nonzero;fill:rgb(0%,0%,0%);fill-opacity:1;" d="M 220.648438 99.511719 L 226.257812 99.511719 L 226.257812 100.261719 L 220.648438 100.261719 Z M 220.648438 99.511719 "/>
<path style=" stroke:none;fill-rule:nonzero;fill:rgb(0%,0%,0%);fill-opacity:1;" d="M 229.273438 96.636719 L 227.664062 97.449219 L 227.664062 97.574219 C 227.773438 97.527344 227.867188 97.496094 227.898438 97.480469 C 228.070312 97.417969 228.210938 97.386719 228.304688 97.386719 C 228.492188 97.386719 228.570312 97.511719 228.570312 97.808594 L 228.570312 101.871094 C 228.570312 102.167969 228.507812 102.371094 228.351562 102.449219 C 228.226562 102.527344 228.101562 102.558594 227.726562 102.558594 L 227.726562 102.699219 L 230.195312 102.699219 L 230.195312 102.558594 C 229.492188 102.558594 229.351562 102.464844 229.351562 102.042969 L 229.351562 96.652344 Z M 229.273438 96.636719 "/>
<path style=" stroke:none;fill-rule:nonzero;fill:rgb(0%,0%,0%);fill-opacity:1;" d="M 232.425781 110.023438 C 232.351562 110.023438 232.316406 109.992188 232.316406 109.929688 C 232.316406 109.886719 232.320312 109.859375 232.332031 109.851562 C 233.695312 108.515625 234.378906 106.585938 234.378906 104.054688 C 234.378906 101.523438 233.707031 99.597656 232.363281 98.273438 C 232.332031 98.253906 232.316406 98.222656 232.316406 98.179688 C 232.316406 98.148438 232.324219 98.125 232.347656 98.101562 C 232.367188 98.082031 232.394531 98.070312 232.425781 98.070312 L 232.535156 98.070312 C 232.554688 98.070312 232.574219 98.082031 232.597656 98.101562 C 233.160156 98.550781 233.632812 99.097656 234.019531 99.742188 C 234.402344 100.390625 234.683594 101.082031 234.863281 101.820312 C 235.039062 102.550781 235.128906 103.296875 235.128906 104.054688 C 235.128906 104.617188 235.074219 105.175781 234.972656 105.726562 C 234.878906 106.269531 234.726562 106.804688 234.519531 107.335938 C 234.308594 107.867188 234.042969 108.355469 233.722656 108.804688 C 233.410156 109.25 233.035156 109.652344 232.597656 110.007812 C 232.574219 110.015625 232.554688 110.023438 232.535156 110.023438 Z M 232.425781 110.023438 "/>
<path style=" stroke:none;fill-rule:nonzero;fill:rgb(0%,0%,0%);fill-opacity:1;" d="M 237.65625 99.746094 C 238.1875 99.746094 238.390625 99.761719 238.609375 99.839844 C 239.15625 100.042969 239.515625 100.542969 239.515625 101.167969 C 239.515625 101.917969 239 102.496094 238.328125 102.496094 C 238.09375 102.496094 237.90625 102.433594 237.578125 102.230469 C 237.3125 102.058594 237.15625 101.996094 237 101.996094 C 236.796875 101.996094 236.671875 102.121094 236.671875 102.308594 C 236.671875 102.621094 237.046875 102.824219 237.6875 102.824219 C 238.375 102.824219 239.078125 102.589844 239.5 102.230469 C 239.921875 101.855469 240.15625 101.339844 240.15625 100.730469 C 240.15625 100.277344 240.015625 99.855469 239.75 99.574219 C 239.578125 99.386719 239.40625 99.277344 239 99.105469 C 239.625 98.683594 239.84375 98.355469 239.84375 97.871094 C 239.84375 97.136719 239.28125 96.636719 238.453125 96.636719 C 238 96.636719 237.609375 96.792969 237.28125 97.074219 C 237.015625 97.324219 236.875 97.558594 236.6875 98.089844 L 236.8125 98.121094 C 237.1875 97.464844 237.59375 97.167969 238.15625 97.167969 C 238.734375 97.167969 239.140625 97.574219 239.140625 98.136719 C 239.140625 98.449219 239 98.777344 238.78125 99.011719 C 238.515625 99.277344 238.265625 99.402344 237.65625 99.621094 Z M 237.65625 99.746094 "/>
<g clip-path="url(#clip4)" clip-rule="nonzero">
<path style="fill:none;stroke-width:0.936;stroke-linecap:butt;stroke-linejoin:miter;stroke:rgb(0%,0%,0%);stroke-opacity:1;stroke-miterlimit:10;" d="M 157.136719 -113.75 L 282.609375 -113.75 " transform="matrix(1,0,0,-1,0,0)"/>
</g>
</g>
</svg>
