<?xml version="1.0" encoding="UTF-8"?>
<svg xmlns="http://www.w3.org/2000/svg" xmlns:xlink="http://www.w3.org/1999/xlink" width="334.415283pt" height="118.112427pt" viewBox="0 0 334.415283 118.112427" version="1.1">
<defs>
<clipPath id="clip1">
  <path d="M 151 59 L 201.601562 59 L 201.601562 117 L 151 117 Z M 151 59 "/>
</clipPath>
<clipPath id="clip2">
  <path d="M 149 115 L 153 115 L 153 118.113281 L 149 118.113281 Z M 149 115 "/>
</clipPath>
<clipPath id="clip3">
  <path d="M 149 0.210938 L 153 0.210938 L 153 3 L 149 3 Z M 149 0.210938 "/>
</clipPath>
<clipPath id="clip4">
  <path d="M 94 81 L 158 81 L 158 118.113281 L 94 118.113281 Z M 94 81 "/>
</clipPath>
<clipPath id="clip5">
  <path d="M 94 0.210938 L 159 0.210938 L 159 38 L 94 38 Z M 94 0.210938 "/>
</clipPath>
<clipPath id="clip6">
  <path d="M 208 0 L 334.414062 0 L 334.414062 1 L 208 1 Z M 208 0 "/>
</clipPath>
<clipPath id="clip7">
  <path d="M 208 20 L 334.414062 20 L 334.414062 21 L 208 21 Z M 208 20 "/>
</clipPath>
<clipPath id="clip8">
  <path d="M 208 113 L 334.414062 113 L 334.414062 115 L 208 115 Z M 208 113 "/>
</clipPath>
</defs>
<g id="surface1">
<path style=" stroke:none;fill-rule:evenodd;fill:rgb(0%,48.626709%,96.861267%);fill-opacity:1;" d="M 100.800781 87.960938 L 151.199219 59.160156 L 100.800781 30.363281 Z M 100.800781 87.960938 "/>
<path style=" stroke:none;fill-rule:evenodd;fill:rgb(100%,73.724365%,23.529053%);fill-opacity:1;" d="M 100.800781 87.960938 L 50.398438 59.160156 L 100.800781 30.363281 Z M 100.800781 87.960938 "/>
<path style=" stroke:none;fill-rule:evenodd;fill:rgb(100%,73.724365%,23.529053%);fill-opacity:1;" d="M 151.199219 116.761719 L 100.800781 87.960938 L 151.199219 59.160156 Z M 151.199219 116.761719 "/>
<path style=" stroke:none;fill-rule:evenodd;fill:rgb(100%,73.724365%,23.529053%);fill-opacity:1;" d="M 151.199219 59.160156 L 100.800781 30.363281 L 151.199219 1.5625 Z M 151.199219 59.160156 "/>
<g clip-path="url(#clip1)" clip-rule="nonzero">
<path style=" stroke:none;fill-rule:evenodd;fill:rgb(0%,48.626709%,96.861267%);fill-opacity:1;" d="M 151.199219 116.761719 L 201.601562 87.960938 L 151.199219 59.160156 Z M 151.199219 116.761719 "/>
</g>
<path style=" stroke:none;fill-rule:evenodd;fill:rgb(0%,48.626709%,96.861267%);fill-opacity:1;" d="M 50.398438 116.761719 L 100.800781 87.960938 L 50.398438 59.160156 Z M 50.398438 116.761719 "/>
<path style=" stroke:none;fill-rule:evenodd;fill:rgb(0%,48.626709%,96.861267%);fill-opacity:1;" d="M 50.398438 59.160156 L 100.800781 30.363281 L 50.398438 1.5625 Z M 50.398438 59.160156 "/>
<path style=" stroke:none;fill-rule:evenodd;fill:rgb(100%,73.724365%,23.529053%);fill-opacity:1;" d="M 50.398438 116.761719 L 0 87.960938 L 50.398438 59.160156 Z M 50.398438 116.761719 "/>
<path style=" stroke:none;fill-rule:nonzero;fill:rgb(0%,0%,0%);fill-opacity:1;" d="M 102.148438 87.960938 C 102.148438 88.710938 101.546875 89.3125 100.800781 89.3125 C 100.054688 89.3125 99.449219 88.710938 99.449219 87.960938 C 99.449219 87.214844 100.054688 86.613281 100.800781 86.613281 C 101.546875 86.613281 102.148438 87.214844 102.148438 87.960938 Z M 102.148438 87.960938 "/>
<path style=" stroke:none;fill-rule:nonzero;fill:rgb(0%,0%,0%);fill-opacity:1;" d="M 102.148438 30.363281 C 102.148438 31.109375 101.546875 31.710938 100.800781 31.710938 C 100.054688 31.710938 99.449219 31.109375 99.449219 30.363281 C 99.449219 29.617188 100.054688 29.011719 100.800781 29.011719 C 101.546875 29.011719 102.148438 29.617188 102.148438 30.363281 Z M 102.148438 30.363281 "/>
<path style=" stroke:none;fill-rule:nonzero;fill:rgb(0%,0%,0%);fill-opacity:1;" d="M 152.550781 59.160156 C 152.550781 59.910156 151.945312 60.511719 151.199219 60.511719 C 150.453125 60.511719 149.847656 59.910156 149.847656 59.160156 C 149.847656 58.414062 150.453125 57.8125 151.199219 57.8125 C 151.945312 57.8125 152.550781 58.414062 152.550781 59.160156 Z M 152.550781 59.160156 "/>
<path style=" stroke:none;fill-rule:nonzero;fill:rgb(0%,0%,0%);fill-opacity:1;" d="M 51.75 59.160156 C 51.75 59.910156 51.148438 60.511719 50.398438 60.511719 C 49.652344 60.511719 49.050781 59.910156 49.050781 59.160156 C 49.050781 58.414062 49.652344 57.8125 50.398438 57.8125 C 51.148438 57.8125 51.75 58.414062 51.75 59.160156 Z M 51.75 59.160156 "/>
<g clip-path="url(#clip2)" clip-rule="nonzero">
<path style=" stroke:none;fill-rule:nonzero;fill:rgb(0%,0%,0%);fill-opacity:1;" d="M 152.550781 116.761719 C 152.550781 117.507812 151.945312 118.113281 151.199219 118.113281 C 150.453125 118.113281 149.847656 117.507812 149.847656 116.761719 C 149.847656 116.015625 150.453125 115.414062 151.199219 115.414062 C 151.945312 115.414062 152.550781 116.015625 152.550781 116.761719 Z M 152.550781 116.761719 "/>
</g>
<g clip-path="url(#clip3)" clip-rule="nonzero">
<path style=" stroke:none;fill-rule:nonzero;fill:rgb(0%,0%,0%);fill-opacity:1;" d="M 152.550781 1.5625 C 152.550781 2.308594 151.945312 2.914062 151.199219 2.914062 C 150.453125 2.914062 149.847656 2.308594 149.847656 1.5625 C 149.847656 0.816406 150.453125 0.210938 151.199219 0.210938 C 151.945312 0.210938 152.550781 0.816406 152.550781 1.5625 Z M 152.550781 1.5625 "/>
</g>
<path style=" stroke:none;fill-rule:nonzero;fill:rgb(0%,0%,0%);fill-opacity:1;" d="M 102.519531 93.949219 C 102.519531 93.234375 102.476562 92.515625 102.167969 91.855469 C 101.757812 90.984375 101.015625 90.84375 100.648438 90.84375 C 100.101562 90.84375 99.453125 91.082031 99.074219 91.914062 C 98.792969 92.53125 98.75 93.234375 98.75 93.949219 C 98.75 94.625 98.777344 95.429688 99.160156 96.117188 C 99.539062 96.835938 100.199219 97.015625 100.632812 97.015625 C 101.113281 97.015625 101.804688 96.835938 102.195312 95.976562 C 102.476562 95.355469 102.519531 94.652344 102.519531 93.949219 Z M 100.632812 96.820312 C 100.285156 96.820312 99.75 96.59375 99.59375 95.738281 C 99.496094 95.203125 99.496094 94.371094 99.496094 93.835938 C 99.496094 93.261719 99.496094 92.671875 99.566406 92.195312 C 99.734375 91.125 100.410156 91.039062 100.632812 91.039062 C 100.929688 91.039062 101.523438 91.210938 101.691406 92.09375 C 101.789062 92.601562 101.789062 93.273438 101.789062 93.835938 C 101.789062 94.511719 101.789062 95.117188 101.691406 95.695312 C 101.550781 96.554688 101.042969 96.820312 100.632812 96.820312 Z M 100.632812 96.820312 "/>
<path style=" stroke:none;fill-rule:nonzero;fill:rgb(0%,0%,0%);fill-opacity:1;" d="M 100.433594 24.308594 C 99.957031 23.703125 99.84375 23.5625 99.5625 23.335938 C 99.054688 22.929688 98.5625 22.773438 98.101562 22.773438 C 97.058594 22.773438 96.367188 23.757812 96.367188 24.816406 C 96.367188 25.839844 97.03125 26.839844 98.070312 26.839844 C 99.097656 26.839844 99.84375 26.023438 100.277344 25.304688 C 100.773438 25.914062 100.867188 26.054688 101.148438 26.277344 C 101.65625 26.683594 102.164062 26.839844 102.613281 26.839844 C 103.667969 26.839844 104.34375 25.855469 104.34375 24.800781 C 104.34375 23.773438 103.679688 22.773438 102.65625 22.773438 C 101.617188 22.773438 100.867188 23.589844 100.433594 24.308594 Z M 100.671875 24.617188 C 101.039062 23.972656 101.699219 23.054688 102.710938 23.054688 C 103.667969 23.054688 104.148438 24 104.148438 24.800781 C 104.148438 25.6875 103.539062 26.402344 102.753906 26.402344 C 102.234375 26.402344 101.839844 26.039062 101.644531 25.839844 C 101.417969 25.601562 101.222656 25.320312 100.671875 24.617188 Z M 100.054688 24.996094 C 99.6875 25.644531 99.011719 26.558594 98 26.558594 C 97.058594 26.558594 96.566406 25.617188 96.566406 24.816406 C 96.566406 23.929688 97.171875 23.210938 97.960938 23.210938 C 98.476562 23.210938 98.886719 23.578125 99.070312 23.773438 C 99.292969 24.011719 99.507812 24.292969 100.054688 24.996094 Z M 100.054688 24.996094 "/>
<path style=" stroke:none;fill-rule:nonzero;fill:rgb(0%,0%,0%);fill-opacity:1;" d="M 155.246094 52.65625 C 155.246094 52.429688 155.246094 52.417969 155.039062 52.417969 C 154.476562 52.992188 153.6875 52.992188 153.40625 52.992188 L 153.40625 53.273438 C 153.585938 53.273438 154.109375 53.273438 154.570312 53.039062 L 154.570312 57.691406 C 154.570312 58.015625 154.542969 58.113281 153.742188 58.113281 L 153.460938 58.113281 L 153.460938 58.394531 C 153.773438 58.363281 154.542969 58.363281 154.910156 58.363281 C 155.261719 58.363281 156.050781 58.363281 156.359375 58.394531 L 156.359375 58.113281 L 156.078125 58.113281 C 155.261719 58.113281 155.246094 58.015625 155.246094 57.691406 Z M 155.246094 52.65625 "/>
<path style=" stroke:none;fill-rule:nonzero;fill:rgb(0%,0%,0%);fill-opacity:1;" d="M 44.171875 55.375 C 44.328125 55.375 44.496094 55.375 44.496094 55.191406 C 44.496094 55.023438 44.328125 55.023438 44.171875 55.023438 L 39.320312 55.023438 C 39.164062 55.023438 39.011719 55.023438 39.011719 55.191406 C 39.011719 55.375 39.164062 55.375 39.320312 55.375 Z M 44.171875 55.375 "/>
<path style=" stroke:none;fill-rule:nonzero;fill:rgb(0%,0%,0%);fill-opacity:1;" d="M 47.882812 51.703125 C 47.882812 51.476562 47.882812 51.464844 47.671875 51.464844 C 47.109375 52.039062 46.320312 52.039062 46.039062 52.039062 L 46.039062 52.320312 C 46.226562 52.320312 46.742188 52.320312 47.210938 52.085938 L 47.210938 56.738281 C 47.210938 57.0625 47.179688 57.160156 46.378906 57.160156 L 46.097656 57.160156 L 46.097656 57.441406 C 46.40625 57.414062 47.179688 57.414062 47.546875 57.414062 C 47.898438 57.414062 48.683594 57.414062 48.992188 57.441406 L 48.992188 57.160156 L 48.710938 57.160156 C 47.898438 57.160156 47.882812 57.0625 47.882812 56.738281 Z M 47.882812 51.703125 "/>
<path style=" stroke:none;fill-rule:nonzero;fill:rgb(0%,0%,0%);fill-opacity:1;" d="M 154.75 102.472656 C 154.75 102.304688 154.75 102.304688 154.570312 102.304688 C 154.160156 102.695312 153.597656 102.695312 153.34375 102.695312 L 153.34375 102.921875 C 153.484375 102.921875 153.90625 102.921875 154.242188 102.753906 L 154.242188 105.945312 C 154.242188 106.15625 154.242188 106.242188 153.625 106.242188 L 153.386719 106.242188 L 153.386719 106.464844 C 153.5 106.464844 154.273438 106.4375 154.496094 106.4375 C 154.695312 106.4375 155.480469 106.464844 155.621094 106.464844 L 155.621094 106.242188 L 155.382812 106.242188 C 154.75 106.242188 154.75 106.15625 154.75 105.945312 Z M 154.75 102.472656 "/>
<path style="fill:none;stroke-width:0.3582;stroke-linecap:butt;stroke-linejoin:miter;stroke:rgb(0%,0%,0%);stroke-opacity:1;stroke-miterlimit:10;" d="M 152.65625 -107.753906 L 156.226562 -107.753906 " transform="matrix(1,0,0,-1,0,0)"/>
<path style=" stroke:none;fill-rule:nonzero;fill:rgb(0%,0%,0%);fill-opacity:1;" d="M 155.820312 111.949219 L 155.609375 111.949219 C 155.59375 112.089844 155.523438 112.457031 155.441406 112.511719 C 155.398438 112.554688 154.917969 112.554688 154.820312 112.554688 L 153.667969 112.554688 C 154.328125 111.976562 154.554688 111.792969 154.917969 111.5 C 155.382812 111.132812 155.820312 110.742188 155.820312 110.148438 C 155.820312 109.390625 155.160156 108.925781 154.355469 108.925781 C 153.585938 108.925781 153.050781 109.476562 153.050781 110.050781 C 153.050781 110.359375 153.316406 110.402344 153.386719 110.402344 C 153.527344 110.402344 153.710938 110.289062 153.710938 110.066406 C 153.710938 109.953125 153.667969 109.726562 153.34375 109.726562 C 153.539062 109.289062 153.960938 109.148438 154.257812 109.148438 C 154.890625 109.148438 155.214844 109.644531 155.214844 110.148438 C 155.214844 110.695312 154.820312 111.117188 154.625 111.34375 L 153.117188 112.851562 C 153.050781 112.90625 153.050781 112.917969 153.050781 113.085938 L 155.636719 113.085938 Z M 155.820312 111.949219 "/>
<path style=" stroke:none;fill-rule:nonzero;fill:rgb(0%,0%,0%);fill-opacity:1;" d="M 153.679688 7.765625 L 154.636719 6.835938 C 156.027344 5.601562 156.5625 5.121094 156.5625 4.222656 C 156.5625 3.195312 155.761719 2.476562 154.664062 2.476562 C 153.652344 2.476562 152.992188 3.304688 152.992188 4.109375 C 152.992188 4.601562 153.441406 4.601562 153.46875 4.601562 C 153.625 4.601562 153.933594 4.503906 153.933594 4.121094 C 153.933594 3.894531 153.765625 3.660156 153.457031 3.660156 C 153.382812 3.660156 153.371094 3.660156 153.34375 3.671875 C 153.539062 3.082031 154.03125 2.757812 154.554688 2.757812 C 155.367188 2.757812 155.746094 3.492188 155.746094 4.222656 C 155.746094 4.9375 155.3125 5.640625 154.804688 6.203125 L 153.089844 8.117188 C 152.992188 8.214844 152.992188 8.242188 152.992188 8.453125 L 156.324219 8.453125 L 156.5625 6.894531 L 156.351562 6.894531 C 156.296875 7.160156 156.242188 7.554688 156.140625 7.695312 C 156.085938 7.765625 155.492188 7.765625 155.296875 7.765625 Z M 153.679688 7.765625 "/>
<path style="fill:none;stroke-width:1.2;stroke-linecap:butt;stroke-linejoin:miter;stroke:rgb(0%,0%,0%);stroke-opacity:1;stroke-miterlimit:4;" d="M 100.800781 87.960938 L 151.199219 59.164062 "/>
<path style="fill:none;stroke-width:1.2;stroke-linecap:butt;stroke-linejoin:miter;stroke:rgb(0%,0%,0%);stroke-opacity:1;stroke-miterlimit:4;" d="M 100.800781 87.960938 L 100.800781 30.363281 "/>
<path style="fill:none;stroke-width:1.2;stroke-linecap:butt;stroke-linejoin:miter;stroke:rgb(0%,0%,0%);stroke-opacity:1;stroke-miterlimit:4;" d="M 100.800781 87.960938 L 50.398438 59.164062 "/>
<g clip-path="url(#clip4)" clip-rule="nonzero">
<path style="fill:none;stroke-width:1.2;stroke-linecap:butt;stroke-linejoin:miter;stroke:rgb(0%,0%,0%);stroke-opacity:1;stroke-miterlimit:4;" d="M 100.800781 87.960938 L 151.199219 116.761719 "/>
</g>
<g clip-path="url(#clip5)" clip-rule="nonzero">
<path style="fill:none;stroke-width:1.2;stroke-linecap:butt;stroke-linejoin:miter;stroke:rgb(0%,0%,0%);stroke-opacity:1;stroke-miterlimit:4;" d="M 151.433594 1.175781 L 100.800781 30.363281 "/>
</g>
<g clip-path="url(#clip6)" clip-rule="nonzero">
<path style="fill:none;stroke-width:0.936;stroke-linecap:butt;stroke-linejoin:miter;stroke:rgb(0%,0%,0%);stroke-opacity:1;stroke-miterlimit:10;" d="M 208.941406 -0.46875 L 334.414062 -0.46875 " transform="matrix(1,0,0,-1,0,0)"/>
</g>
<path style=" stroke:none;fill-rule:nonzero;fill:rgb(0%,0%,0%);fill-opacity:1;" d="M 222.253906 6.140625 L 219.800781 6.140625 L 219.800781 6.359375 C 220.457031 6.390625 220.675781 6.53125 220.675781 6.859375 C 220.675781 7.046875 220.597656 7.375 220.457031 7.734375 L 218.691406 12.125 L 216.894531 8.078125 C 216.488281 7.203125 216.394531 6.9375 216.394531 6.75 C 216.394531 6.53125 216.566406 6.40625 216.957031 6.390625 C 217.003906 6.390625 217.128906 6.375 217.300781 6.359375 L 217.300781 6.140625 L 214.113281 6.140625 L 214.113281 6.359375 C 214.707031 6.390625 214.863281 6.546875 215.378906 7.609375 L 218.332031 14.171875 L 218.503906 14.171875 L 221.160156 7.46875 C 221.550781 6.53125 221.675781 6.390625 222.253906 6.359375 Z M 222.253906 6.140625 "/>
<path style=" stroke:none;fill-rule:nonzero;fill:rgb(0%,0%,0%);fill-opacity:1;" d="M 226.105469 12.09375 C 225.527344 13 225.027344 13.34375 224.261719 13.34375 C 223.574219 13.34375 223.058594 13 222.714844 12.3125 C 222.496094 11.859375 222.417969 11.46875 222.386719 10.734375 L 226.074219 10.734375 C 225.980469 9.953125 225.855469 9.609375 225.558594 9.234375 C 225.199219 8.796875 224.652344 8.546875 224.027344 8.546875 C 223.433594 8.546875 222.871094 8.765625 222.417969 9.171875 C 221.855469 9.65625 221.527344 10.515625 221.527344 11.484375 C 221.527344 13.140625 222.386719 14.171875 223.761719 14.171875 C 224.902344 14.171875 225.792969 13.46875 226.292969 12.171875 Z M 222.417969 10.359375 C 222.542969 9.421875 222.949219 8.984375 223.683594 8.984375 C 224.402344 8.984375 224.699219 9.3125 224.855469 10.359375 Z M 222.417969 10.359375 "/>
<path style=" stroke:none;fill-rule:nonzero;fill:rgb(0%,0%,0%);fill-opacity:1;" d="M 226.613281 9.390625 C 226.785156 9.34375 226.894531 9.34375 227.035156 9.34375 C 227.332031 9.34375 227.441406 9.53125 227.441406 10.046875 L 227.441406 13.046875 C 227.441406 13.640625 227.363281 13.71875 226.597656 13.875 L 226.597656 14.046875 L 229.457031 14.046875 L 229.457031 13.875 C 228.644531 13.828125 228.441406 13.65625 228.441406 12.96875 L 228.441406 10.28125 C 228.441406 9.90625 228.957031 9.296875 229.285156 9.296875 C 229.363281 9.296875 229.457031 9.359375 229.597656 9.484375 C 229.785156 9.640625 229.910156 9.71875 230.066406 9.71875 C 230.363281 9.71875 230.535156 9.515625 230.535156 9.1875 C 230.535156 8.78125 230.285156 8.546875 229.878906 8.546875 C 229.378906 8.546875 229.035156 8.828125 228.441406 9.671875 L 228.441406 8.578125 L 228.394531 8.546875 C 227.753906 8.8125 227.316406 8.96875 226.613281 9.1875 Z M 226.613281 9.390625 "/>
<path style=" stroke:none;fill-rule:nonzero;fill:rgb(0%,0%,0%);fill-opacity:1;" d="M 233.566406 8.671875 L 232.363281 8.671875 L 232.363281 7.28125 C 232.363281 7.15625 232.347656 7.125 232.269531 7.125 C 232.191406 7.234375 232.128906 7.34375 232.035156 7.453125 C 231.582031 8.125 231.066406 8.6875 230.878906 8.734375 C 230.753906 8.828125 230.675781 8.90625 230.675781 8.96875 C 230.675781 9 230.691406 9.03125 230.722656 9.046875 L 231.363281 9.046875 L 231.363281 12.640625 C 231.363281 13.65625 231.707031 14.171875 232.425781 14.171875 C 233.003906 14.171875 233.457031 13.875 233.847656 13.265625 L 233.691406 13.125 C 233.441406 13.421875 233.238281 13.546875 232.988281 13.546875 C 232.535156 13.546875 232.363281 13.21875 232.363281 12.46875 L 232.363281 9.046875 L 233.566406 9.046875 Z M 233.566406 8.671875 "/>
<path style=" stroke:none;fill-rule:nonzero;fill:rgb(0%,0%,0%);fill-opacity:1;" d="M 238.714844 12.09375 C 238.136719 13 237.636719 13.34375 236.871094 13.34375 C 236.183594 13.34375 235.667969 13 235.324219 12.3125 C 235.105469 11.859375 235.027344 11.46875 234.996094 10.734375 L 238.683594 10.734375 C 238.589844 9.953125 238.464844 9.609375 238.167969 9.234375 C 237.808594 8.796875 237.261719 8.546875 236.636719 8.546875 C 236.042969 8.546875 235.480469 8.765625 235.027344 9.171875 C 234.464844 9.65625 234.136719 10.515625 234.136719 11.484375 C 234.136719 13.140625 234.996094 14.171875 236.371094 14.171875 C 237.511719 14.171875 238.402344 13.46875 238.902344 12.171875 Z M 235.027344 10.359375 C 235.152344 9.421875 235.558594 8.984375 236.292969 8.984375 C 237.011719 8.984375 237.308594 9.3125 237.464844 10.359375 Z M 235.027344 10.359375 "/>
<path style=" stroke:none;fill-rule:nonzero;fill:rgb(0%,0%,0%);fill-opacity:1;" d="M 242.296875 14.046875 L 244.6875 14.046875 L 244.6875 13.875 C 244.328125 13.875 244.078125 13.671875 243.71875 13.15625 L 242.1875 10.8125 L 243.171875 9.375 C 243.40625 9.046875 243.765625 8.859375 244.140625 8.84375 L 244.140625 8.671875 L 242.25 8.671875 L 242.25 8.84375 C 242.609375 8.875 242.734375 8.9375 242.734375 9.109375 C 242.734375 9.25 242.59375 9.515625 242.296875 9.890625 C 242.234375 9.953125 242.09375 10.171875 241.9375 10.40625 L 241.765625 10.171875 C 241.4375 9.671875 241.21875 9.265625 241.21875 9.109375 C 241.21875 8.9375 241.375 8.859375 241.734375 8.84375 L 241.734375 8.671875 L 239.25 8.671875 L 239.25 8.84375 L 239.359375 8.84375 C 239.71875 8.84375 239.90625 9 240.28125 9.5625 L 241.40625 11.28125 L 240.046875 13.265625 C 239.6875 13.75 239.5625 13.828125 239.171875 13.875 L 239.171875 14.046875 L 240.90625 14.046875 L 240.90625 13.875 C 240.578125 13.875 240.421875 13.8125 240.421875 13.65625 C 240.421875 13.578125 240.515625 13.40625 240.671875 13.15625 L 241.609375 11.6875 L 242.703125 13.359375 C 242.75 13.4375 242.765625 13.515625 242.765625 13.578125 C 242.765625 13.796875 242.6875 13.84375 242.296875 13.875 Z M 242.296875 14.046875 "/>
<path style=" stroke:none;fill-rule:nonzero;fill:rgb(0%,0%,0%);fill-opacity:1;" d="M 263.375 9.8125 L 260.328125 9.8125 L 260.328125 10.03125 C 260.84375 10.0625 260.984375 10.109375 261.140625 10.203125 C 261.3125 10.3125 261.390625 10.578125 261.390625 11.09375 L 261.390625 13.03125 C 261.390625 13.40625 260.65625 13.734375 259.796875 13.734375 C 257.84375 13.734375 256.65625 12.375 256.65625 10.15625 C 256.65625 9.03125 256.984375 7.9375 257.515625 7.359375 C 258.03125 6.765625 258.78125 6.4375 259.59375 6.4375 C 260.265625 6.4375 260.84375 6.671875 261.3125 7.109375 C 261.671875 7.4375 261.859375 7.765625 262.15625 8.484375 L 262.4375 8.484375 L 262.34375 5.96875 L 262.078125 5.96875 C 262 6.1875 261.796875 6.359375 261.546875 6.359375 C 261.421875 6.359375 261.234375 6.328125 261.015625 6.234375 C 260.46875 6.0625 259.921875 5.96875 259.390625 5.96875 C 257 5.96875 255.28125 7.71875 255.28125 10.15625 C 255.28125 11.328125 255.609375 12.234375 256.28125 12.9375 C 257.078125 13.765625 258.234375 14.21875 259.546875 14.21875 C 260.578125 14.21875 262.0625 13.796875 262.546875 13.375 L 262.546875 10.953125 C 262.546875 10.25 262.6875 10.09375 263.375 10.03125 Z M 263.375 9.8125 "/>
<path style=" stroke:none;fill-rule:nonzero;fill:rgb(0%,0%,0%);fill-opacity:1;" d="M 268.414062 12.09375 C 267.835938 13 267.335938 13.34375 266.570312 13.34375 C 265.882812 13.34375 265.367188 13 265.023438 12.3125 C 264.804688 11.859375 264.726562 11.46875 264.695312 10.734375 L 268.382812 10.734375 C 268.289062 9.953125 268.164062 9.609375 267.867188 9.234375 C 267.507812 8.796875 266.960938 8.546875 266.335938 8.546875 C 265.742188 8.546875 265.179688 8.765625 264.726562 9.171875 C 264.164062 9.65625 263.835938 10.515625 263.835938 11.484375 C 263.835938 13.140625 264.695312 14.171875 266.070312 14.171875 C 267.210938 14.171875 268.101562 13.46875 268.601562 12.171875 Z M 264.726562 10.359375 C 264.851562 9.421875 265.257812 8.984375 265.992188 8.984375 C 266.710938 8.984375 267.007812 9.3125 267.164062 10.359375 Z M 264.726562 10.359375 "/>
<path style=" stroke:none;fill-rule:nonzero;fill:rgb(0%,0%,0%);fill-opacity:1;" d="M 269.035156 9.296875 C 269.113281 9.25 269.222656 9.234375 269.363281 9.234375 C 269.691406 9.234375 269.800781 9.421875 269.800781 10 L 269.800781 12.96875 C 269.800781 13.65625 269.675781 13.8125 269.066406 13.875 L 269.066406 14.046875 L 271.597656 14.046875 L 271.597656 13.875 C 270.988281 13.8125 270.800781 13.671875 270.800781 13.25 L 270.800781 9.890625 C 271.378906 9.34375 271.644531 9.203125 272.035156 9.203125 C 272.628906 9.203125 272.910156 9.578125 272.910156 10.359375 L 272.910156 12.859375 C 272.910156 13.609375 272.753906 13.8125 272.160156 13.875 L 272.160156 14.046875 L 274.644531 14.046875 L 274.644531 13.875 C 274.066406 13.8125 273.910156 13.671875 273.910156 13.078125 L 273.910156 10.34375 C 273.910156 9.21875 273.394531 8.546875 272.503906 8.546875 C 271.957031 8.546875 271.582031 8.75 270.769531 9.515625 L 270.769531 8.578125 L 270.691406 8.546875 C 270.097656 8.765625 269.691406 8.890625 269.035156 9.09375 Z M 269.035156 9.296875 "/>
<path style=" stroke:none;fill-rule:nonzero;fill:rgb(0%,0%,0%);fill-opacity:1;" d="M 279.699219 12.09375 C 279.121094 13 278.621094 13.34375 277.855469 13.34375 C 277.167969 13.34375 276.652344 13 276.308594 12.3125 C 276.089844 11.859375 276.011719 11.46875 275.980469 10.734375 L 279.667969 10.734375 C 279.574219 9.953125 279.449219 9.609375 279.152344 9.234375 C 278.792969 8.796875 278.246094 8.546875 277.621094 8.546875 C 277.027344 8.546875 276.464844 8.765625 276.011719 9.171875 C 275.449219 9.65625 275.121094 10.515625 275.121094 11.484375 C 275.121094 13.140625 275.980469 14.171875 277.355469 14.171875 C 278.496094 14.171875 279.386719 13.46875 279.886719 12.171875 Z M 276.011719 10.359375 C 276.136719 9.421875 276.542969 8.984375 277.277344 8.984375 C 277.996094 8.984375 278.292969 9.3125 278.449219 10.359375 Z M 276.011719 10.359375 "/>
<path style=" stroke:none;fill-rule:nonzero;fill:rgb(0%,0%,0%);fill-opacity:1;" d="M 280.210938 9.390625 C 280.382812 9.34375 280.492188 9.34375 280.632812 9.34375 C 280.929688 9.34375 281.039062 9.53125 281.039062 10.046875 L 281.039062 13.046875 C 281.039062 13.640625 280.960938 13.71875 280.195312 13.875 L 280.195312 14.046875 L 283.054688 14.046875 L 283.054688 13.875 C 282.242188 13.828125 282.039062 13.65625 282.039062 12.96875 L 282.039062 10.28125 C 282.039062 9.90625 282.554688 9.296875 282.882812 9.296875 C 282.960938 9.296875 283.054688 9.359375 283.195312 9.484375 C 283.382812 9.640625 283.507812 9.71875 283.664062 9.71875 C 283.960938 9.71875 284.132812 9.515625 284.132812 9.1875 C 284.132812 8.78125 283.882812 8.546875 283.476562 8.546875 C 282.976562 8.546875 282.632812 8.828125 282.039062 9.671875 L 282.039062 8.578125 L 281.992188 8.546875 C 281.351562 8.8125 280.914062 8.96875 280.210938 9.1875 Z M 280.210938 9.390625 "/>
<path style=" stroke:none;fill-rule:nonzero;fill:rgb(0%,0%,0%);fill-opacity:1;" d="M 289.394531 13.265625 C 289.191406 13.421875 289.050781 13.484375 288.863281 13.484375 C 288.597656 13.484375 288.519531 13.3125 288.519531 12.796875 L 288.519531 10.46875 C 288.519531 9.84375 288.457031 9.5 288.269531 9.203125 C 288.003906 8.78125 287.488281 8.546875 286.785156 8.546875 C 285.660156 8.546875 284.785156 9.140625 284.785156 9.890625 C 284.785156 10.15625 285.019531 10.40625 285.300781 10.40625 C 285.582031 10.40625 285.832031 10.15625 285.832031 9.90625 C 285.832031 9.84375 285.816406 9.796875 285.816406 9.703125 C 285.785156 9.59375 285.769531 9.5 285.769531 9.421875 C 285.769531 9.09375 286.160156 8.828125 286.628906 8.828125 C 287.222656 8.828125 287.550781 9.1875 287.550781 9.828125 L 287.550781 10.5625 C 285.707031 11.296875 285.503906 11.390625 284.988281 11.84375 C 284.722656 12.09375 284.550781 12.5 284.550781 12.890625 C 284.550781 13.640625 285.082031 14.171875 285.816406 14.171875 C 286.332031 14.171875 286.832031 13.921875 287.550781 13.296875 C 287.613281 13.921875 287.832031 14.171875 288.316406 14.171875 C 288.722656 14.171875 288.972656 14.015625 289.394531 13.5625 Z M 287.550781 12.578125 C 287.550781 12.953125 287.488281 13.0625 287.238281 13.203125 C 286.941406 13.359375 286.613281 13.46875 286.363281 13.46875 C 285.941406 13.46875 285.613281 13.0625 285.613281 12.546875 L 285.613281 12.5 C 285.613281 11.796875 286.097656 11.375 287.550781 10.84375 Z M 287.550781 12.578125 "/>
<path style=" stroke:none;fill-rule:nonzero;fill:rgb(0%,0%,0%);fill-opacity:1;" d="M 292.46875 8.671875 L 291.265625 8.671875 L 291.265625 7.28125 C 291.265625 7.15625 291.25 7.125 291.171875 7.125 C 291.09375 7.234375 291.03125 7.34375 290.9375 7.453125 C 290.484375 8.125 289.96875 8.6875 289.78125 8.734375 C 289.65625 8.828125 289.578125 8.90625 289.578125 8.96875 C 289.578125 9 289.59375 9.03125 289.625 9.046875 L 290.265625 9.046875 L 290.265625 12.640625 C 290.265625 13.65625 290.609375 14.171875 291.328125 14.171875 C 291.90625 14.171875 292.359375 13.875 292.75 13.265625 L 292.59375 13.125 C 292.34375 13.421875 292.140625 13.546875 291.890625 13.546875 C 291.4375 13.546875 291.265625 13.21875 291.265625 12.46875 L 291.265625 9.046875 L 292.46875 9.046875 Z M 292.46875 8.671875 "/>
<path style=" stroke:none;fill-rule:nonzero;fill:rgb(0%,0%,0%);fill-opacity:1;" d="M 295.730469 8.546875 C 294.183594 8.546875 293.089844 9.703125 293.089844 11.34375 C 293.089844 12.953125 294.199219 14.171875 295.714844 14.171875 C 297.214844 14.171875 298.371094 12.90625 298.371094 11.25 C 298.371094 9.6875 297.261719 8.546875 295.730469 8.546875 Z M 295.574219 8.890625 C 296.589844 8.890625 297.292969 10.03125 297.292969 11.671875 C 297.292969 13.015625 296.746094 13.828125 295.855469 13.828125 C 295.386719 13.828125 294.949219 13.546875 294.699219 13.0625 C 294.355469 12.4375 294.167969 11.609375 294.167969 10.765625 C 294.167969 9.625 294.730469 8.890625 295.574219 8.890625 Z M 295.574219 8.890625 "/>
<path style=" stroke:none;fill-rule:nonzero;fill:rgb(0%,0%,0%);fill-opacity:1;" d="M 298.800781 9.390625 C 298.972656 9.34375 299.082031 9.34375 299.222656 9.34375 C 299.519531 9.34375 299.628906 9.53125 299.628906 10.046875 L 299.628906 13.046875 C 299.628906 13.640625 299.550781 13.71875 298.785156 13.875 L 298.785156 14.046875 L 301.644531 14.046875 L 301.644531 13.875 C 300.832031 13.828125 300.628906 13.65625 300.628906 12.96875 L 300.628906 10.28125 C 300.628906 9.90625 301.144531 9.296875 301.472656 9.296875 C 301.550781 9.296875 301.644531 9.359375 301.785156 9.484375 C 301.972656 9.640625 302.097656 9.71875 302.253906 9.71875 C 302.550781 9.71875 302.722656 9.515625 302.722656 9.1875 C 302.722656 8.78125 302.472656 8.546875 302.066406 8.546875 C 301.566406 8.546875 301.222656 8.828125 300.628906 9.671875 L 300.628906 8.578125 L 300.582031 8.546875 C 299.941406 8.8125 299.503906 8.96875 298.800781 9.1875 Z M 298.800781 9.390625 "/>
<path style=" stroke:none;fill-rule:nonzero;fill:rgb(0%,0%,0%);fill-opacity:1;" d="M 308.675781 8.546875 C 307.128906 8.546875 306.035156 9.703125 306.035156 11.34375 C 306.035156 12.953125 307.144531 14.171875 308.660156 14.171875 C 310.160156 14.171875 311.316406 12.90625 311.316406 11.25 C 311.316406 9.6875 310.207031 8.546875 308.675781 8.546875 Z M 308.519531 8.890625 C 309.535156 8.890625 310.238281 10.03125 310.238281 11.671875 C 310.238281 13.015625 309.691406 13.828125 308.800781 13.828125 C 308.332031 13.828125 307.894531 13.546875 307.644531 13.0625 C 307.300781 12.4375 307.113281 11.609375 307.113281 10.765625 C 307.113281 9.625 307.675781 8.890625 308.519531 8.890625 Z M 308.519531 8.890625 "/>
<path style=" stroke:none;fill-rule:nonzero;fill:rgb(0%,0%,0%);fill-opacity:1;" d="M 315.359375 8.671875 L 313.890625 8.671875 L 313.890625 7.28125 C 313.890625 6.59375 314.125 6.21875 314.578125 6.21875 C 314.828125 6.21875 315 6.34375 315.203125 6.6875 C 315.40625 7 315.546875 7.109375 315.75 7.109375 C 316.015625 7.109375 316.25 6.90625 316.25 6.625 C 316.25 6.1875 315.71875 5.890625 315 5.890625 C 314.265625 5.890625 313.625 6.203125 313.328125 6.75 C 313.015625 7.28125 312.921875 7.71875 312.90625 8.671875 L 311.921875 8.671875 L 311.921875 9.046875 L 312.90625 9.046875 L 312.90625 12.796875 C 312.90625 13.671875 312.765625 13.8125 311.90625 13.875 L 311.90625 14.046875 L 315.015625 14.046875 L 315.015625 13.875 C 314.03125 13.828125 313.90625 13.703125 313.90625 12.796875 L 313.90625 9.046875 L 315.359375 9.046875 Z M 315.359375 8.671875 "/>
<path style=" stroke:none;fill-rule:nonzero;fill:rgb(0%,0%,0%);fill-opacity:1;" d="M 321.0625 10.5625 C 321.359375 10.59375 321.5625 10.609375 321.875 10.609375 C 322.8125 10.609375 323.453125 10.484375 323.96875 10.203125 C 324.6875 9.8125 325.125 9.09375 325.125 8.296875 C 325.125 7.796875 324.953125 7.34375 324.625 7 C 324.15625 6.46875 323.109375 6.140625 321.984375 6.140625 L 318.828125 6.140625 L 318.828125 6.359375 C 319.71875 6.453125 319.828125 6.578125 319.828125 7.4375 L 319.828125 12.609375 C 319.828125 13.609375 319.734375 13.734375 318.828125 13.8125 L 318.828125 14.046875 L 322.171875 14.046875 L 322.171875 13.8125 C 321.234375 13.78125 321.0625 13.609375 321.0625 12.75 Z M 321.0625 6.984375 C 321.0625 6.65625 321.140625 6.578125 321.46875 6.578125 C 323.078125 6.578125 323.8125 7.140625 323.8125 8.375 C 323.8125 9.53125 323.109375 10.125 321.734375 10.125 C 321.5 10.125 321.328125 10.109375 321.0625 10.09375 Z M 321.0625 6.984375 "/>
<path style=" stroke:none;fill-rule:nonzero;fill:rgb(0%,0%,0%);fill-opacity:1;" d="M 328.6875 13.851562 L 327.765625 13.851562 L 327.765625 9.867188 L 327.375 9.867188 L 324.5625 13.851562 L 324.5625 14.429688 L 327.078125 14.429688 L 327.078125 15.929688 L 327.765625 15.929688 L 327.765625 14.429688 L 328.6875 14.429688 Z M 327.078125 13.851562 L 324.921875 13.851562 L 327.078125 10.789062 Z M 327.078125 13.851562 "/>
<g clip-path="url(#clip7)" clip-rule="nonzero">
<path style="fill:none;stroke-width:0.585;stroke-linecap:butt;stroke-linejoin:miter;stroke:rgb(0%,0%,0%);stroke-opacity:1;stroke-miterlimit:10;" d="M 208.941406 -20.582031 L 334.414062 -20.582031 " transform="matrix(1,0,0,-1,0,0)"/>
</g>
<path style=" stroke:none;fill-rule:nonzero;fill:rgb(0%,0%,0%);fill-opacity:1;" d="M 218.191406 31.839844 C 218.878906 32.699219 219.722656 33.183594 220.472656 33.183594 C 221.472656 33.183594 222.144531 32.449219 222.144531 31.386719 C 222.144531 30.324219 221.441406 29.605469 220.410156 29.605469 C 219.613281 29.605469 218.847656 30.074219 218.191406 30.933594 C 217.503906 30.074219 216.722656 29.605469 215.972656 29.605469 C 214.972656 29.605469 214.238281 30.355469 214.238281 31.417969 C 214.238281 32.449219 214.925781 33.183594 215.925781 33.183594 C 216.597656 33.183594 217.285156 32.855469 217.832031 32.261719 Z M 218.597656 31.402344 C 219.113281 30.683594 219.816406 30.230469 220.457031 30.230469 C 221.097656 30.230469 221.550781 30.714844 221.550781 31.402344 C 221.550781 32.105469 221.128906 32.558594 220.488281 32.558594 C 219.847656 32.558594 219.441406 32.292969 218.597656 31.402344 Z M 217.800781 31.386719 C 217.222656 32.121094 216.488281 32.558594 215.878906 32.558594 C 215.253906 32.558594 214.832031 32.074219 214.832031 31.386719 C 214.832031 30.699219 215.269531 30.230469 215.925781 30.230469 C 216.488281 30.230469 217.035156 30.542969 217.722656 31.277344 C 217.769531 31.324219 217.769531 31.324219 217.800781 31.386719 Z M 217.800781 31.386719 "/>
<path style=" stroke:none;fill-rule:nonzero;fill:rgb(0%,0%,0%);fill-opacity:1;" d="M 260.191406 33.777344 C 259.988281 33.933594 259.847656 33.996094 259.660156 33.996094 C 259.394531 33.996094 259.316406 33.824219 259.316406 33.308594 L 259.316406 30.980469 C 259.316406 30.355469 259.253906 30.011719 259.066406 29.714844 C 258.800781 29.292969 258.285156 29.058594 257.582031 29.058594 C 256.457031 29.058594 255.582031 29.652344 255.582031 30.402344 C 255.582031 30.667969 255.816406 30.917969 256.097656 30.917969 C 256.378906 30.917969 256.628906 30.667969 256.628906 30.417969 C 256.628906 30.355469 256.613281 30.308594 256.613281 30.214844 C 256.582031 30.105469 256.566406 30.011719 256.566406 29.933594 C 256.566406 29.605469 256.957031 29.339844 257.425781 29.339844 C 258.019531 29.339844 258.347656 29.699219 258.347656 30.339844 L 258.347656 31.074219 C 256.503906 31.808594 256.300781 31.902344 255.785156 32.355469 C 255.519531 32.605469 255.347656 33.011719 255.347656 33.402344 C 255.347656 34.152344 255.878906 34.683594 256.613281 34.683594 C 257.128906 34.683594 257.628906 34.433594 258.347656 33.808594 C 258.410156 34.433594 258.628906 34.683594 259.113281 34.683594 C 259.519531 34.683594 259.769531 34.527344 260.191406 34.074219 Z M 258.347656 33.089844 C 258.347656 33.464844 258.285156 33.574219 258.035156 33.714844 C 257.738281 33.871094 257.410156 33.980469 257.160156 33.980469 C 256.738281 33.980469 256.410156 33.574219 256.410156 33.058594 L 256.410156 33.011719 C 256.410156 32.308594 256.894531 31.886719 258.347656 31.355469 Z M 258.347656 33.089844 "/>
<path style=" stroke:none;fill-rule:nonzero;fill:rgb(0%,0%,0%);fill-opacity:1;" d="M 265.121094 28.140625 L 264.199219 28.140625 L 264.199219 24.15625 L 263.808594 24.15625 L 260.996094 28.140625 L 260.996094 28.71875 L 263.511719 28.71875 L 263.511719 30.21875 L 264.199219 30.21875 L 264.199219 28.71875 L 265.121094 28.71875 Z M 263.511719 28.140625 L 261.355469 28.140625 L 263.511719 25.078125 Z M 263.511719 28.140625 "/>
<path style=" stroke:none;fill-rule:nonzero;fill:rgb(0%,0%,0%);fill-opacity:1;" d="M 216.957031 41 C 216.300781 41 215.800781 41.203125 215.363281 41.625 C 214.660156 42.28125 214.207031 43.65625 214.207031 45.0625 C 214.207031 46.359375 214.613281 47.765625 215.175781 48.4375 C 215.613281 48.953125 216.222656 49.25 216.910156 49.25 C 217.519531 49.25 218.035156 49.046875 218.472656 48.625 C 219.160156 47.96875 219.613281 46.578125 219.613281 45.140625 C 219.613281 42.6875 218.535156 41 216.957031 41 Z M 216.925781 41.3125 C 217.925781 41.3125 218.472656 42.65625 218.472656 45.15625 C 218.472656 47.65625 217.941406 48.9375 216.910156 48.9375 C 215.878906 48.9375 215.363281 47.65625 215.363281 45.171875 C 215.363281 42.640625 215.894531 41.3125 216.925781 41.3125 Z M 216.925781 41.3125 "/>
<path style=" stroke:none;fill-rule:nonzero;fill:rgb(0%,0%,0%);fill-opacity:1;" d="M 256.738281 40.9375 L 256.675781 40.921875 C 256.175781 41.09375 255.847656 41.1875 255.285156 41.34375 L 254.941406 41.4375 L 254.941406 41.625 C 255.019531 41.625 255.066406 41.625 255.144531 41.625 C 255.628906 41.625 255.738281 41.734375 255.738281 42.234375 L 255.738281 48.4375 C 255.738281 48.796875 256.753906 49.203125 257.707031 49.203125 C 259.285156 49.203125 260.503906 47.890625 260.503906 46.171875 C 260.503906 44.703125 259.597656 43.578125 258.394531 43.578125 C 257.675781 43.578125 256.972656 44.015625 256.738281 44.59375 Z M 256.738281 45.234375 C 256.738281 44.765625 257.300781 44.328125 257.925781 44.328125 C 258.847656 44.328125 259.457031 45.265625 259.457031 46.71875 C 259.457031 48.046875 258.878906 48.8125 257.894531 48.8125 C 257.269531 48.8125 256.738281 48.546875 256.738281 48.234375 Z M 256.738281 45.234375 "/>
<path style=" stroke:none;fill-rule:nonzero;fill:rgb(0%,0%,0%);fill-opacity:1;" d="M 265.121094 42.660156 L 264.199219 42.660156 L 264.199219 38.675781 L 263.808594 38.675781 L 260.996094 42.660156 L 260.996094 43.238281 L 263.511719 43.238281 L 263.511719 44.738281 L 264.199219 44.738281 L 264.199219 43.238281 L 265.121094 43.238281 Z M 263.511719 42.660156 L 261.355469 42.660156 L 263.511719 39.597656 Z M 263.511719 42.660156 "/>
<path style=" stroke:none;fill-rule:nonzero;fill:rgb(0%,0%,0%);fill-opacity:1;" d="M 217.410156 55.523438 L 215.253906 56.601562 L 215.253906 56.773438 C 215.394531 56.710938 215.535156 56.664062 215.582031 56.648438 C 215.785156 56.554688 215.988281 56.507812 216.113281 56.507812 C 216.363281 56.507812 216.472656 56.695312 216.472656 57.070312 L 216.472656 62.492188 C 216.472656 62.882812 216.378906 63.164062 216.191406 63.273438 C 216.003906 63.367188 215.832031 63.414062 215.332031 63.429688 L 215.332031 63.601562 L 218.628906 63.601562 L 218.628906 63.429688 C 217.691406 63.414062 217.503906 63.289062 217.503906 62.710938 L 217.503906 55.539062 Z M 217.410156 55.523438 "/>
<path style=" stroke:none;fill-rule:nonzero;fill:rgb(0%,0%,0%);fill-opacity:1;" d="M 258.613281 66.570312 C 258.175781 66.214844 257.792969 65.808594 257.472656 65.351562 C 257.148438 64.902344 256.882812 64.417969 256.675781 63.898438 C 256.476562 63.390625 256.324219 62.859375 256.222656 62.304688 C 256.117188 61.742188 256.066406 61.179688 256.066406 60.617188 C 256.066406 60.046875 256.117188 59.476562 256.222656 58.914062 C 256.324219 58.351562 256.480469 57.816406 256.691406 57.304688 C 256.898438 56.785156 257.164062 56.300781 257.488281 55.851562 C 257.808594 55.394531 258.183594 55 258.613281 54.664062 C 258.613281 54.644531 258.632812 54.632812 258.675781 54.632812 L 258.785156 54.632812 C 258.804688 54.632812 258.824219 54.644531 258.847656 54.664062 C 258.867188 54.6875 258.878906 54.710938 258.878906 54.742188 C 258.878906 54.773438 258.871094 54.800781 258.863281 54.820312 C 258.464844 55.195312 258.136719 55.601562 257.878906 56.039062 C 257.617188 56.476562 257.410156 56.945312 257.253906 57.445312 C 257.097656 57.9375 256.980469 58.445312 256.910156 58.976562 C 256.847656 59.5 256.816406 60.046875 256.816406 60.617188 C 256.816406 63.148438 257.492188 65.070312 258.847656 66.382812 C 258.867188 66.402344 258.878906 66.4375 258.878906 66.492188 C 258.878906 66.5 258.867188 66.515625 258.847656 66.539062 C 258.824219 66.570312 258.804688 66.585938 258.785156 66.585938 L 258.675781 66.585938 C 258.632812 66.585938 258.613281 66.578125 258.613281 66.570312 Z M 258.613281 66.570312 "/>
<path style=" stroke:none;fill-rule:nonzero;fill:rgb(0%,0%,0%);fill-opacity:1;" d="M 264.828125 62.820312 C 264.625 62.976562 264.484375 63.039062 264.296875 63.039062 C 264.03125 63.039062 263.953125 62.867188 263.953125 62.351562 L 263.953125 60.023438 C 263.953125 59.398438 263.890625 59.054688 263.703125 58.757812 C 263.4375 58.335938 262.921875 58.101562 262.21875 58.101562 C 261.09375 58.101562 260.21875 58.695312 260.21875 59.445312 C 260.21875 59.710938 260.453125 59.960938 260.734375 59.960938 C 261.015625 59.960938 261.265625 59.710938 261.265625 59.460938 C 261.265625 59.398438 261.25 59.351562 261.25 59.257812 C 261.21875 59.148438 261.203125 59.054688 261.203125 58.976562 C 261.203125 58.648438 261.59375 58.382812 262.0625 58.382812 C 262.65625 58.382812 262.984375 58.742188 262.984375 59.382812 L 262.984375 60.117188 C 261.140625 60.851562 260.9375 60.945312 260.421875 61.398438 C 260.15625 61.648438 259.984375 62.054688 259.984375 62.445312 C 259.984375 63.195312 260.515625 63.726562 261.25 63.726562 C 261.765625 63.726562 262.265625 63.476562 262.984375 62.851562 C 263.046875 63.476562 263.265625 63.726562 263.75 63.726562 C 264.15625 63.726562 264.40625 63.570312 264.828125 63.117188 Z M 262.984375 62.132812 C 262.984375 62.507812 262.921875 62.617188 262.671875 62.757812 C 262.375 62.914062 262.046875 63.023438 261.796875 63.023438 C 261.375 63.023438 261.046875 62.617188 261.046875 62.101562 L 261.046875 62.054688 C 261.046875 61.351562 261.53125 60.929688 262.984375 60.398438 Z M 262.984375 62.132812 "/>
<path style=" stroke:none;fill-rule:nonzero;fill:rgb(0%,0%,0%);fill-opacity:1;" d="M 267.355469 55.460938 L 267.292969 55.445312 C 266.792969 55.617188 266.464844 55.710938 265.902344 55.867188 L 265.558594 55.960938 L 265.558594 56.148438 C 265.636719 56.148438 265.683594 56.148438 265.761719 56.148438 C 266.246094 56.148438 266.355469 56.257812 266.355469 56.757812 L 266.355469 62.960938 C 266.355469 63.320312 267.371094 63.726562 268.324219 63.726562 C 269.902344 63.726562 271.121094 62.414062 271.121094 60.695312 C 271.121094 59.226562 270.214844 58.101562 269.011719 58.101562 C 268.292969 58.101562 267.589844 58.539062 267.355469 59.117188 Z M 267.355469 59.757812 C 267.355469 59.289062 267.917969 58.851562 268.542969 58.851562 C 269.464844 58.851562 270.074219 59.789062 270.074219 61.242188 C 270.074219 62.570312 269.496094 63.335938 268.511719 63.335938 C 267.886719 63.335938 267.355469 63.070312 267.355469 62.757812 Z M 267.355469 59.757812 "/>
<path style=" stroke:none;fill-rule:nonzero;fill:rgb(0%,0%,0%);fill-opacity:1;" d="M 272.285156 66.585938 C 272.210938 66.585938 272.175781 66.554688 272.175781 66.492188 C 272.175781 66.449219 272.179688 66.421875 272.191406 66.414062 C 273.554688 65.078125 274.238281 63.148438 274.238281 60.617188 C 274.238281 58.085938 273.566406 56.160156 272.222656 54.835938 C 272.191406 54.816406 272.175781 54.785156 272.175781 54.742188 C 272.175781 54.710938 272.183594 54.6875 272.207031 54.664062 C 272.226562 54.644531 272.253906 54.632812 272.285156 54.632812 L 272.394531 54.632812 C 272.414062 54.632812 272.433594 54.644531 272.457031 54.664062 C 273.019531 55.113281 273.492188 55.660156 273.878906 56.304688 C 274.261719 56.953125 274.542969 57.644531 274.722656 58.382812 C 274.898438 59.113281 274.988281 59.859375 274.988281 60.617188 C 274.988281 61.179688 274.933594 61.738281 274.832031 62.289062 C 274.738281 62.832031 274.585938 63.367188 274.378906 63.898438 C 274.167969 64.429688 273.902344 64.917969 273.582031 65.367188 C 273.269531 65.8125 272.894531 66.214844 272.457031 66.570312 C 272.433594 66.578125 272.414062 66.585938 272.394531 66.585938 Z M 272.285156 66.585938 "/>
<path style=" stroke:none;fill-rule:nonzero;fill:rgb(0%,0%,0%);fill-opacity:1;" d="M 280.375 57.183594 L 279.453125 57.183594 L 279.453125 53.199219 L 279.0625 53.199219 L 276.25 57.183594 L 276.25 57.761719 L 278.765625 57.761719 L 278.765625 59.261719 L 279.453125 59.261719 L 279.453125 57.761719 L 280.375 57.761719 Z M 278.765625 57.183594 L 276.609375 57.183594 L 278.765625 54.121094 Z M 278.765625 57.183594 "/>
<path style=" stroke:none;fill-rule:nonzero;fill:rgb(0%,0%,0%);fill-opacity:1;" d="M 215.191406 73.875 L 222.675781 73.875 L 222.675781 74.875 L 215.191406 74.875 Z M 215.191406 73.875 "/>
<path style=" stroke:none;fill-rule:nonzero;fill:rgb(0%,0%,0%);fill-opacity:1;" d="M 226.699219 70.046875 L 224.542969 71.125 L 224.542969 71.296875 C 224.683594 71.234375 224.824219 71.1875 224.871094 71.171875 C 225.074219 71.078125 225.277344 71.03125 225.402344 71.03125 C 225.652344 71.03125 225.761719 71.21875 225.761719 71.59375 L 225.761719 77.015625 C 225.761719 77.40625 225.667969 77.6875 225.480469 77.796875 C 225.292969 77.890625 225.121094 77.9375 224.621094 77.953125 L 224.621094 78.125 L 227.917969 78.125 L 227.917969 77.953125 C 226.980469 77.9375 226.792969 77.8125 226.792969 77.234375 L 226.792969 70.0625 Z M 226.699219 70.046875 "/>
<path style=" stroke:none;fill-rule:nonzero;fill:rgb(0%,0%,0%);fill-opacity:1;" d="M 258.613281 81.09375 C 258.175781 80.738281 257.792969 80.332031 257.472656 79.875 C 257.148438 79.425781 256.882812 78.941406 256.675781 78.421875 C 256.476562 77.914062 256.324219 77.382812 256.222656 76.828125 C 256.117188 76.265625 256.066406 75.703125 256.066406 75.140625 C 256.066406 74.570312 256.117188 74 256.222656 73.4375 C 256.324219 72.875 256.480469 72.339844 256.691406 71.828125 C 256.898438 71.308594 257.164062 70.824219 257.488281 70.375 C 257.808594 69.917969 258.183594 69.523438 258.613281 69.1875 C 258.613281 69.167969 258.632812 69.15625 258.675781 69.15625 L 258.785156 69.15625 C 258.804688 69.15625 258.824219 69.167969 258.847656 69.1875 C 258.867188 69.210938 258.878906 69.234375 258.878906 69.265625 C 258.878906 69.296875 258.871094 69.324219 258.863281 69.34375 C 258.464844 69.71875 258.136719 70.125 257.878906 70.5625 C 257.617188 71 257.410156 71.46875 257.253906 71.96875 C 257.097656 72.460938 256.980469 72.96875 256.910156 73.5 C 256.847656 74.023438 256.816406 74.570312 256.816406 75.140625 C 256.816406 77.671875 257.492188 79.59375 258.847656 80.90625 C 258.867188 80.925781 258.878906 80.960938 258.878906 81.015625 C 258.878906 81.023438 258.867188 81.039062 258.847656 81.0625 C 258.824219 81.09375 258.804688 81.109375 258.785156 81.109375 L 258.675781 81.109375 C 258.632812 81.109375 258.613281 81.101562 258.613281 81.09375 Z M 258.613281 81.09375 "/>
<path style=" stroke:none;fill-rule:nonzero;fill:rgb(0%,0%,0%);fill-opacity:1;" d="M 264.828125 77.34375 C 264.625 77.5 264.484375 77.5625 264.296875 77.5625 C 264.03125 77.5625 263.953125 77.390625 263.953125 76.875 L 263.953125 74.546875 C 263.953125 73.921875 263.890625 73.578125 263.703125 73.28125 C 263.4375 72.859375 262.921875 72.625 262.21875 72.625 C 261.09375 72.625 260.21875 73.21875 260.21875 73.96875 C 260.21875 74.234375 260.453125 74.484375 260.734375 74.484375 C 261.015625 74.484375 261.265625 74.234375 261.265625 73.984375 C 261.265625 73.921875 261.25 73.875 261.25 73.78125 C 261.21875 73.671875 261.203125 73.578125 261.203125 73.5 C 261.203125 73.171875 261.59375 72.90625 262.0625 72.90625 C 262.65625 72.90625 262.984375 73.265625 262.984375 73.90625 L 262.984375 74.640625 C 261.140625 75.375 260.9375 75.46875 260.421875 75.921875 C 260.15625 76.171875 259.984375 76.578125 259.984375 76.96875 C 259.984375 77.71875 260.515625 78.25 261.25 78.25 C 261.765625 78.25 262.265625 78 262.984375 77.375 C 263.046875 78 263.265625 78.25 263.75 78.25 C 264.15625 78.25 264.40625 78.09375 264.828125 77.640625 Z M 262.984375 76.65625 C 262.984375 77.03125 262.921875 77.140625 262.671875 77.28125 C 262.375 77.4375 262.046875 77.546875 261.796875 77.546875 C 261.375 77.546875 261.046875 77.140625 261.046875 76.625 L 261.046875 76.578125 C 261.046875 75.875 261.53125 75.453125 262.984375 74.921875 Z M 262.984375 76.65625 "/>
<path style=" stroke:none;fill-rule:nonzero;fill:rgb(0%,0%,0%);fill-opacity:1;" d="M 267.355469 69.984375 L 267.292969 69.96875 C 266.792969 70.140625 266.464844 70.234375 265.902344 70.390625 L 265.558594 70.484375 L 265.558594 70.671875 C 265.636719 70.671875 265.683594 70.671875 265.761719 70.671875 C 266.246094 70.671875 266.355469 70.78125 266.355469 71.28125 L 266.355469 77.484375 C 266.355469 77.84375 267.371094 78.25 268.324219 78.25 C 269.902344 78.25 271.121094 76.9375 271.121094 75.21875 C 271.121094 73.75 270.214844 72.625 269.011719 72.625 C 268.292969 72.625 267.589844 73.0625 267.355469 73.640625 Z M 267.355469 74.28125 C 267.355469 73.8125 267.917969 73.375 268.542969 73.375 C 269.464844 73.375 270.074219 74.3125 270.074219 75.765625 C 270.074219 77.09375 269.496094 77.859375 268.511719 77.859375 C 267.886719 77.859375 267.355469 77.59375 267.355469 77.28125 Z M 267.355469 74.28125 "/>
<path style=" stroke:none;fill-rule:nonzero;fill:rgb(0%,0%,0%);fill-opacity:1;" d="M 272.457031 70.597656 L 278.066406 70.597656 L 278.066406 71.347656 L 272.457031 71.347656 Z M 272.457031 70.597656 "/>
<path style=" stroke:none;fill-rule:nonzero;fill:rgb(0%,0%,0%);fill-opacity:1;" d="M 281.078125 67.722656 L 279.46875 68.535156 L 279.46875 68.660156 C 279.578125 68.613281 279.671875 68.582031 279.703125 68.566406 C 279.875 68.503906 280.015625 68.472656 280.109375 68.472656 C 280.296875 68.472656 280.375 68.597656 280.375 68.894531 L 280.375 72.957031 C 280.375 73.253906 280.3125 73.457031 280.15625 73.535156 C 280.03125 73.613281 279.90625 73.644531 279.53125 73.644531 L 279.53125 73.785156 L 282 73.785156 L 282 73.644531 C 281.296875 73.644531 281.15625 73.550781 281.15625 73.128906 L 281.15625 67.738281 Z M 281.078125 67.722656 "/>
<path style=" stroke:none;fill-rule:nonzero;fill:rgb(0%,0%,0%);fill-opacity:1;" d="M 284.234375 81.109375 C 284.160156 81.109375 284.125 81.078125 284.125 81.015625 C 284.125 80.972656 284.128906 80.945312 284.140625 80.9375 C 285.503906 79.601562 286.1875 77.671875 286.1875 75.140625 C 286.1875 72.609375 285.515625 70.683594 284.171875 69.359375 C 284.140625 69.339844 284.125 69.308594 284.125 69.265625 C 284.125 69.234375 284.132812 69.210938 284.15625 69.1875 C 284.175781 69.167969 284.203125 69.15625 284.234375 69.15625 L 284.34375 69.15625 C 284.363281 69.15625 284.382812 69.167969 284.40625 69.1875 C 284.96875 69.636719 285.441406 70.183594 285.828125 70.828125 C 286.210938 71.476562 286.492188 72.167969 286.671875 72.90625 C 286.847656 73.636719 286.9375 74.382812 286.9375 75.140625 C 286.9375 75.703125 286.882812 76.261719 286.78125 76.8125 C 286.6875 77.355469 286.535156 77.890625 286.328125 78.421875 C 286.117188 78.953125 285.851562 79.441406 285.53125 79.890625 C 285.21875 80.335938 284.84375 80.738281 284.40625 81.09375 C 284.382812 81.101562 284.363281 81.109375 284.34375 81.109375 Z M 284.234375 81.109375 "/>
<path style=" stroke:none;fill-rule:nonzero;fill:rgb(0%,0%,0%);fill-opacity:1;" d="M 292.324219 71.707031 L 291.402344 71.707031 L 291.402344 67.722656 L 291.011719 67.722656 L 288.199219 71.707031 L 288.199219 72.285156 L 290.714844 72.285156 L 290.714844 73.785156 L 291.402344 73.785156 L 291.402344 72.285156 L 292.324219 72.285156 Z M 290.714844 71.707031 L 288.558594 71.707031 L 290.714844 68.644531 Z M 290.714844 71.707031 "/>
<path style=" stroke:none;fill-rule:nonzero;fill:rgb(0%,0%,0%);fill-opacity:1;" d="M 219.597656 91.007812 L 219.441406 90.945312 C 219.003906 91.632812 218.847656 91.742188 218.316406 91.742188 L 215.457031 91.742188 L 217.457031 89.632812 C 218.535156 88.523438 218.988281 87.617188 218.988281 86.679688 C 218.988281 85.492188 218.019531 84.570312 216.785156 84.570312 C 216.128906 84.570312 215.503906 84.835938 215.066406 85.304688 C 214.675781 85.710938 214.503906 86.101562 214.300781 86.945312 L 214.550781 87.007812 C 215.019531 85.835938 215.457031 85.445312 216.285156 85.445312 C 217.285156 85.445312 217.972656 86.132812 217.972656 87.132812 C 217.972656 88.070312 217.410156 89.179688 216.410156 90.242188 L 214.285156 92.507812 L 214.285156 92.648438 L 218.941406 92.648438 Z M 219.597656 91.007812 "/>
<path style=" stroke:none;fill-rule:nonzero;fill:rgb(0%,0%,0%);fill-opacity:1;" d="M 258.613281 95.617188 C 258.175781 95.261719 257.792969 94.855469 257.472656 94.398438 C 257.148438 93.949219 256.882812 93.464844 256.675781 92.945312 C 256.476562 92.4375 256.324219 91.90625 256.222656 91.351562 C 256.117188 90.789062 256.066406 90.226562 256.066406 89.664062 C 256.066406 89.09375 256.117188 88.523438 256.222656 87.960938 C 256.324219 87.398438 256.480469 86.863281 256.691406 86.351562 C 256.898438 85.832031 257.164062 85.347656 257.488281 84.898438 C 257.808594 84.441406 258.183594 84.046875 258.613281 83.710938 C 258.613281 83.691406 258.632812 83.679688 258.675781 83.679688 L 258.785156 83.679688 C 258.804688 83.679688 258.824219 83.691406 258.847656 83.710938 C 258.867188 83.734375 258.878906 83.757812 258.878906 83.789062 C 258.878906 83.820312 258.871094 83.847656 258.863281 83.867188 C 258.464844 84.242188 258.136719 84.648438 257.878906 85.085938 C 257.617188 85.523438 257.410156 85.992188 257.253906 86.492188 C 257.097656 86.984375 256.980469 87.492188 256.910156 88.023438 C 256.847656 88.546875 256.816406 89.09375 256.816406 89.664062 C 256.816406 92.195312 257.492188 94.117188 258.847656 95.429688 C 258.867188 95.449219 258.878906 95.484375 258.878906 95.539062 C 258.878906 95.546875 258.867188 95.5625 258.847656 95.585938 C 258.824219 95.617188 258.804688 95.632812 258.785156 95.632812 L 258.675781 95.632812 C 258.632812 95.632812 258.613281 95.625 258.613281 95.617188 Z M 258.613281 95.617188 "/>
<path style=" stroke:none;fill-rule:nonzero;fill:rgb(0%,0%,0%);fill-opacity:1;" d="M 264.828125 91.867188 C 264.625 92.023438 264.484375 92.085938 264.296875 92.085938 C 264.03125 92.085938 263.953125 91.914062 263.953125 91.398438 L 263.953125 89.070312 C 263.953125 88.445312 263.890625 88.101562 263.703125 87.804688 C 263.4375 87.382812 262.921875 87.148438 262.21875 87.148438 C 261.09375 87.148438 260.21875 87.742188 260.21875 88.492188 C 260.21875 88.757812 260.453125 89.007812 260.734375 89.007812 C 261.015625 89.007812 261.265625 88.757812 261.265625 88.507812 C 261.265625 88.445312 261.25 88.398438 261.25 88.304688 C 261.21875 88.195312 261.203125 88.101562 261.203125 88.023438 C 261.203125 87.695312 261.59375 87.429688 262.0625 87.429688 C 262.65625 87.429688 262.984375 87.789062 262.984375 88.429688 L 262.984375 89.164062 C 261.140625 89.898438 260.9375 89.992188 260.421875 90.445312 C 260.15625 90.695312 259.984375 91.101562 259.984375 91.492188 C 259.984375 92.242188 260.515625 92.773438 261.25 92.773438 C 261.765625 92.773438 262.265625 92.523438 262.984375 91.898438 C 263.046875 92.523438 263.265625 92.773438 263.75 92.773438 C 264.15625 92.773438 264.40625 92.617188 264.828125 92.164062 Z M 262.984375 91.179688 C 262.984375 91.554688 262.921875 91.664062 262.671875 91.804688 C 262.375 91.960938 262.046875 92.070312 261.796875 92.070312 C 261.375 92.070312 261.046875 91.664062 261.046875 91.148438 L 261.046875 91.101562 C 261.046875 90.398438 261.53125 89.976562 262.984375 89.445312 Z M 262.984375 91.179688 "/>
<path style=" stroke:none;fill-rule:nonzero;fill:rgb(0%,0%,0%);fill-opacity:1;" d="M 269.792969 87.074219 L 269.667969 87.027344 C 269.339844 87.542969 269.214844 87.621094 268.824219 87.621094 L 266.667969 87.621094 L 268.183594 86.042969 C 268.980469 85.214844 269.324219 84.527344 269.324219 83.839844 C 269.324219 82.933594 268.605469 82.246094 267.667969 82.246094 C 267.183594 82.246094 266.714844 82.449219 266.386719 82.808594 C 266.089844 83.105469 265.964844 83.386719 265.808594 84.027344 L 265.996094 84.074219 C 266.355469 83.199219 266.667969 82.902344 267.292969 82.902344 C 268.042969 82.902344 268.558594 83.417969 268.558594 84.167969 C 268.558594 84.871094 268.152344 85.714844 267.386719 86.511719 L 265.792969 88.199219 L 265.792969 88.308594 L 269.292969 88.308594 Z M 269.792969 87.074219 "/>
<path style=" stroke:none;fill-rule:nonzero;fill:rgb(0%,0%,0%);fill-opacity:1;" d="M 272.335938 84.507812 L 272.273438 84.492188 C 271.773438 84.664062 271.445312 84.757812 270.882812 84.914062 L 270.539062 85.007812 L 270.539062 85.195312 C 270.617188 85.195312 270.664062 85.195312 270.742188 85.195312 C 271.226562 85.195312 271.335938 85.304688 271.335938 85.804688 L 271.335938 92.007812 C 271.335938 92.367188 272.351562 92.773438 273.304688 92.773438 C 274.882812 92.773438 276.101562 91.460938 276.101562 89.742188 C 276.101562 88.273438 275.195312 87.148438 273.992188 87.148438 C 273.273438 87.148438 272.570312 87.585938 272.335938 88.164062 Z M 272.335938 88.804688 C 272.335938 88.335938 272.898438 87.898438 273.523438 87.898438 C 274.445312 87.898438 275.054688 88.835938 275.054688 90.289062 C 275.054688 91.617188 274.476562 92.382812 273.492188 92.382812 C 272.867188 92.382812 272.335938 92.117188 272.335938 91.804688 Z M 272.335938 88.804688 "/>
<path style=" stroke:none;fill-rule:nonzero;fill:rgb(0%,0%,0%);fill-opacity:1;" d="M 277.265625 95.632812 C 277.191406 95.632812 277.15625 95.601562 277.15625 95.539062 C 277.15625 95.496094 277.160156 95.46875 277.171875 95.460938 C 278.535156 94.125 279.21875 92.195312 279.21875 89.664062 C 279.21875 87.132812 278.546875 85.207031 277.203125 83.882812 C 277.171875 83.863281 277.15625 83.832031 277.15625 83.789062 C 277.15625 83.757812 277.164062 83.734375 277.1875 83.710938 C 277.207031 83.691406 277.234375 83.679688 277.265625 83.679688 L 277.375 83.679688 C 277.394531 83.679688 277.414062 83.691406 277.4375 83.710938 C 278 84.160156 278.472656 84.707031 278.859375 85.351562 C 279.242188 86 279.523438 86.691406 279.703125 87.429688 C 279.878906 88.160156 279.96875 88.90625 279.96875 89.664062 C 279.96875 90.226562 279.914062 90.785156 279.8125 91.335938 C 279.71875 91.878906 279.566406 92.414062 279.359375 92.945312 C 279.148438 93.476562 278.882812 93.964844 278.5625 94.414062 C 278.25 94.859375 277.875 95.261719 277.4375 95.617188 C 277.414062 95.625 277.394531 95.632812 277.375 95.632812 Z M 277.265625 95.632812 "/>
<path style=" stroke:none;fill-rule:nonzero;fill:rgb(0%,0%,0%);fill-opacity:1;" d="M 285.359375 86.230469 L 284.4375 86.230469 L 284.4375 82.246094 L 284.046875 82.246094 L 281.234375 86.230469 L 281.234375 86.808594 L 283.75 86.808594 L 283.75 88.308594 L 284.4375 88.308594 L 284.4375 86.808594 L 285.359375 86.808594 Z M 283.75 86.230469 L 281.59375 86.230469 L 283.75 83.167969 Z M 283.75 86.230469 "/>
<path style=" stroke:none;fill-rule:nonzero;fill:rgb(0%,0%,0%);fill-opacity:1;" d="M 217.730469 96.765625 L 216.121094 97.578125 L 216.121094 97.703125 C 216.230469 97.65625 216.324219 97.625 216.355469 97.609375 C 216.527344 97.546875 216.667969 97.515625 216.761719 97.515625 C 216.949219 97.515625 217.027344 97.640625 217.027344 97.9375 L 217.027344 102 C 217.027344 102.296875 216.964844 102.5 216.808594 102.578125 C 216.683594 102.65625 216.558594 102.6875 216.183594 102.6875 L 216.183594 102.828125 L 218.652344 102.828125 L 218.652344 102.6875 C 217.949219 102.6875 217.808594 102.59375 217.808594 102.171875 L 217.808594 96.78125 Z M 217.730469 96.765625 "/>
<path style="fill:none;stroke-width:0.478;stroke-linecap:butt;stroke-linejoin:miter;stroke:rgb(0%,0%,0%);stroke-opacity:1;stroke-miterlimit:10;" d="M 215.121094 -104.550781 L 219.601562 -104.550781 " transform="matrix(1,0,0,-1,0,0)"/>
<path style=" stroke:none;fill-rule:nonzero;fill:rgb(0%,0%,0%);fill-opacity:1;" d="M 219.386719 110.429688 L 219.261719 110.382812 C 218.933594 110.898438 218.808594 110.976562 218.417969 110.976562 L 216.261719 110.976562 L 217.777344 109.398438 C 218.574219 108.570312 218.917969 107.882812 218.917969 107.195312 C 218.917969 106.289062 218.199219 105.601562 217.261719 105.601562 C 216.777344 105.601562 216.308594 105.804688 215.980469 106.164062 C 215.683594 106.460938 215.558594 106.742188 215.402344 107.382812 L 215.589844 107.429688 C 215.949219 106.554688 216.261719 106.257812 216.886719 106.257812 C 217.636719 106.257812 218.152344 106.773438 218.152344 107.523438 C 218.152344 108.226562 217.746094 109.070312 216.980469 109.867188 L 215.386719 111.554688 L 215.386719 111.664062 L 218.886719 111.664062 Z M 219.386719 110.429688 "/>
<path style=" stroke:none;fill-rule:nonzero;fill:rgb(0%,0%,0%);fill-opacity:1;" d="M 258.613281 110.507812 C 258.175781 110.152344 257.792969 109.746094 257.472656 109.289062 C 257.148438 108.839844 256.882812 108.355469 256.675781 107.835938 C 256.476562 107.328125 256.324219 106.796875 256.222656 106.242188 C 256.117188 105.679688 256.066406 105.117188 256.066406 104.554688 C 256.066406 103.984375 256.117188 103.414062 256.222656 102.851562 C 256.324219 102.289062 256.480469 101.753906 256.691406 101.242188 C 256.898438 100.722656 257.164062 100.238281 257.488281 99.789062 C 257.808594 99.332031 258.183594 98.9375 258.613281 98.601562 C 258.613281 98.582031 258.632812 98.570312 258.675781 98.570312 L 258.785156 98.570312 C 258.804688 98.570312 258.824219 98.582031 258.847656 98.601562 C 258.867188 98.625 258.878906 98.648438 258.878906 98.679688 C 258.878906 98.710938 258.871094 98.738281 258.863281 98.757812 C 258.464844 99.132812 258.136719 99.539062 257.878906 99.976562 C 257.617188 100.414062 257.410156 100.882812 257.253906 101.382812 C 257.097656 101.875 256.980469 102.382812 256.910156 102.914062 C 256.847656 103.4375 256.816406 103.984375 256.816406 104.554688 C 256.816406 107.085938 257.492188 109.007812 258.847656 110.320312 C 258.867188 110.339844 258.878906 110.375 258.878906 110.429688 C 258.878906 110.4375 258.867188 110.453125 258.847656 110.476562 C 258.824219 110.507812 258.804688 110.523438 258.785156 110.523438 L 258.675781 110.523438 C 258.632812 110.523438 258.613281 110.515625 258.613281 110.507812 Z M 258.613281 110.507812 "/>
<path style=" stroke:none;fill-rule:nonzero;fill:rgb(0%,0%,0%);fill-opacity:1;" d="M 264.828125 106.757812 C 264.625 106.914062 264.484375 106.976562 264.296875 106.976562 C 264.03125 106.976562 263.953125 106.804688 263.953125 106.289062 L 263.953125 103.960938 C 263.953125 103.335938 263.890625 102.992188 263.703125 102.695312 C 263.4375 102.273438 262.921875 102.039062 262.21875 102.039062 C 261.09375 102.039062 260.21875 102.632812 260.21875 103.382812 C 260.21875 103.648438 260.453125 103.898438 260.734375 103.898438 C 261.015625 103.898438 261.265625 103.648438 261.265625 103.398438 C 261.265625 103.335938 261.25 103.289062 261.25 103.195312 C 261.21875 103.085938 261.203125 102.992188 261.203125 102.914062 C 261.203125 102.585938 261.59375 102.320312 262.0625 102.320312 C 262.65625 102.320312 262.984375 102.679688 262.984375 103.320312 L 262.984375 104.054688 C 261.140625 104.789062 260.9375 104.882812 260.421875 105.335938 C 260.15625 105.585938 259.984375 105.992188 259.984375 106.382812 C 259.984375 107.132812 260.515625 107.664062 261.25 107.664062 C 261.765625 107.664062 262.265625 107.414062 262.984375 106.789062 C 263.046875 107.414062 263.265625 107.664062 263.75 107.664062 C 264.15625 107.664062 264.40625 107.507812 264.828125 107.054688 Z M 262.984375 106.070312 C 262.984375 106.445312 262.921875 106.554688 262.671875 106.695312 C 262.375 106.851562 262.046875 106.960938 261.796875 106.960938 C 261.375 106.960938 261.046875 106.554688 261.046875 106.039062 L 261.046875 105.992188 C 261.046875 105.289062 261.53125 104.867188 262.984375 104.335938 Z M 262.984375 106.070312 "/>
<path style=" stroke:none;fill-rule:nonzero;fill:rgb(0%,0%,0%);fill-opacity:1;" d="M 267.355469 99.398438 L 267.292969 99.382812 C 266.792969 99.554688 266.464844 99.648438 265.902344 99.804688 L 265.558594 99.898438 L 265.558594 100.085938 C 265.636719 100.085938 265.683594 100.085938 265.761719 100.085938 C 266.246094 100.085938 266.355469 100.195312 266.355469 100.695312 L 266.355469 106.898438 C 266.355469 107.257812 267.371094 107.664062 268.324219 107.664062 C 269.902344 107.664062 271.121094 106.351562 271.121094 104.632812 C 271.121094 103.164062 270.214844 102.039062 269.011719 102.039062 C 268.292969 102.039062 267.589844 102.476562 267.355469 103.054688 Z M 267.355469 103.695312 C 267.355469 103.226562 267.917969 102.789062 268.542969 102.789062 C 269.464844 102.789062 270.074219 103.726562 270.074219 105.179688 C 270.074219 106.507812 269.496094 107.273438 268.511719 107.273438 C 267.886719 107.273438 267.355469 107.007812 267.355469 106.695312 Z M 267.355469 103.695312 "/>
<path style=" stroke:none;fill-rule:nonzero;fill:rgb(0%,0%,0%);fill-opacity:1;" d="M 275.769531 101.964844 L 275.644531 101.917969 C 275.316406 102.433594 275.191406 102.511719 274.800781 102.511719 L 272.644531 102.511719 L 274.160156 100.933594 C 274.957031 100.105469 275.300781 99.417969 275.300781 98.730469 C 275.300781 97.824219 274.582031 97.136719 273.644531 97.136719 C 273.160156 97.136719 272.691406 97.339844 272.363281 97.699219 C 272.066406 97.996094 271.941406 98.277344 271.785156 98.917969 L 271.972656 98.964844 C 272.332031 98.089844 272.644531 97.792969 273.269531 97.792969 C 274.019531 97.792969 274.535156 98.308594 274.535156 99.058594 C 274.535156 99.761719 274.128906 100.605469 273.363281 101.402344 L 271.769531 103.089844 L 271.769531 103.199219 L 275.269531 103.199219 Z M 275.769531 101.964844 "/>
<path style=" stroke:none;fill-rule:nonzero;fill:rgb(0%,0%,0%);fill-opacity:1;" d="M 277.265625 110.523438 C 277.191406 110.523438 277.15625 110.492188 277.15625 110.429688 C 277.15625 110.386719 277.160156 110.359375 277.171875 110.351562 C 278.535156 109.015625 279.21875 107.085938 279.21875 104.554688 C 279.21875 102.023438 278.546875 100.097656 277.203125 98.773438 C 277.171875 98.753906 277.15625 98.722656 277.15625 98.679688 C 277.15625 98.648438 277.164062 98.625 277.1875 98.601562 C 277.207031 98.582031 277.234375 98.570312 277.265625 98.570312 L 277.375 98.570312 C 277.394531 98.570312 277.414062 98.582031 277.4375 98.601562 C 278 99.050781 278.472656 99.597656 278.859375 100.242188 C 279.242188 100.890625 279.523438 101.582031 279.703125 102.320312 C 279.878906 103.050781 279.96875 103.796875 279.96875 104.554688 C 279.96875 105.117188 279.914062 105.675781 279.8125 106.226562 C 279.71875 106.769531 279.566406 107.304688 279.359375 107.835938 C 279.148438 108.367188 278.882812 108.855469 278.5625 109.304688 C 278.25 109.75 277.875 110.152344 277.4375 110.507812 C 277.414062 110.515625 277.394531 110.523438 277.375 110.523438 Z M 277.265625 110.523438 "/>
<path style=" stroke:none;fill-rule:nonzero;fill:rgb(0%,0%,0%);fill-opacity:1;" d="M 285.359375 101.121094 L 284.4375 101.121094 L 284.4375 97.136719 L 284.046875 97.136719 L 281.234375 101.121094 L 281.234375 101.699219 L 283.75 101.699219 L 283.75 103.199219 L 284.4375 103.199219 L 284.4375 101.699219 L 285.359375 101.699219 Z M 283.75 101.121094 L 281.59375 101.121094 L 283.75 98.058594 Z M 283.75 101.121094 "/>
<g clip-path="url(#clip8)" clip-rule="nonzero">
<path style="fill:none;stroke-width:0.936;stroke-linecap:butt;stroke-linejoin:miter;stroke:rgb(0%,0%,0%);stroke-opacity:1;stroke-miterlimit:10;" d="M 208.941406 -114.253906 L 334.414062 -114.253906 " transform="matrix(1,0,0,-1,0,0)"/>
</g>
</g>
</svg>
